<svg width="36" height="36" viewBox="0 0 48 49" fill="none" xmlns="http://www.w3.org/2000/svg"><g filter="url(#filter0_d_132_35)" fill="#fff"><path d="M32.828.686H14.7C8.8.686 4 5.486 4 11.386v18.128c0 5.9 4.8 10.7 10.7 10.7h18.129c5.9 0 10.7-4.8 10.7-10.7V11.386c0-5.9-4.8-10.7-10.7-10.7zm8.383 28.828c0 4.622-3.76 8.383-8.383 8.383H14.7c-4.622 0-8.383-3.76-8.383-8.383V11.386c0-4.623 3.76-8.383 8.383-8.383h18.129c4.622 0 8.382 3.76 8.382 8.383v18.128z"/><path d="M23.762 9.642c-5.96 0-10.808 4.848-10.808 10.808s4.848 10.808 10.808 10.808S34.571 26.41 34.571 20.45 29.722 9.642 23.762 9.642zm0 19.299c-4.681 0-8.49-3.81-8.49-8.491 0-4.682 3.809-8.491 8.49-8.491 4.682 0 8.491 3.81 8.491 8.49 0 4.683-3.809 8.492-8.49 8.492zM34.83 5.803a3.197 3.197 0 00-3.193 3.194 3.197 3.197 0 003.193 3.194 3.198 3.198 0 003.195-3.194 3.197 3.197 0 00-3.195-3.194zm0 4.07a.878.878 0 010-1.753.877.877 0 010 1.753z"/></g><defs><filter id="filter0_d_132_35" x="0" y=".686" width="47.529" height="47.529" filterUnits="userSpaceOnUse" color-interpolation-filters="sRGB"><feFlood flood-opacity="0" result="BackgroundImageFix"/><feColorMatrix in="SourceAlpha" values="0 0 0 0 0 0 0 0 0 0 0 0 0 0 0 0 0 0 127 0" result="hardAlpha"/><feOffset dy="4"/><feGaussianBlur stdDeviation="2"/><feComposite in2="hardAlpha" operator="out"/><feColorMatrix values="0 0 0 0 0 0 0 0 0 0 0 0 0 0 0 0 0 0 0.25 0"/><feBlend in2="BackgroundImageFix" result="effect1_dropShadow_132_35"/><feBlend in="SourceGraphic" in2="effect1_dropShadow_132_35" result="shape"/></filter></defs></svg>