<svg width="150" height="141" fill="none" xmlns="http://www.w3.org/2000/svg"><g opacity=".9"><g filter="url(#filter0_d_2_362)"><path d="M133.756 77.415c.289.075.556.097.801.064a1.51 1.51 0 00.732-.3c.238-.167.489-.422.754-.765.264-.337.557-.775.88-1.314a13.76 13.76 0 011.037-1.5 6 6 0 011.106-1.065 3.155 3.155 0 011.206-.547c.423-.09.875-.071 1.357.055a3.11 3.11 0 012.098 1.775c.208.454.33.961.365 1.522a5.685 5.685 0 01-.197 1.792c-.243.93-.627 1.671-1.154 2.224-.522.56-1.113.935-1.775 1.126a3.595 3.595 0 01-1.953.034l.427-1.633c.465.122.902.13 1.311.025.415-.103.777-.33 1.086-.679.315-.347.553-.83.715-1.448.153-.584.191-1.089.114-1.514-.076-.426-.24-.772-.491-1.037a2.02 2.02 0 00-.958-.542 1.63 1.63 0 00-.757-.025c-.239.059-.48.18-.722.365-.244.19-.49.448-.737.77-.25.329-.512.73-.787 1.203a11.86 11.86 0 01-1.14 1.646c-.377.446-.761.794-1.154 1.042a2.907 2.907 0 01-1.222.471 3.334 3.334 0 01-1.357-.091 3.126 3.126 0 01-1.289-.665 3.077 3.077 0 01-.817-1.149 4.381 4.381 0 01-.313-1.544 6.538 6.538 0 01.233-1.83c.15-.572.376-1.115.681-1.629a5.197 5.197 0 011.107-1.318c.435-.365.92-.623 1.456-.773.54-.144 1.12-.134 1.737.027l-.427 1.633c-.425-.111-.812-.125-1.161-.04a2.258 2.258 0 00-.924.475 3.237 3.237 0 00-.698.863 4.961 4.961 0 00-.436 1.112c-.15.573-.197 1.078-.142 1.516.055.439.203.798.444 1.08.24.286.561.482.964.588z" fill="#C7C7C7" shape-rendering="crispEdges"/><path d="M134.557 77.479l-.103-.995-.015.002-.016.002.134.99zm.732-.3l-.577-.816-.011.008.588.809zm.754-.765l-.787-.616-.003.004.79.612zm.88-1.314l-.856-.518-.002.004.858.514zm1.037-1.5l-.773-.634-.006.007.779.627zm5.767.218l-.91.415.001.002.909-.417zm-.986 5.538l-.724-.69-.007.008.731.682zm-1.775 1.126l-.276-.961h-.005l.281.96zm-1.953.034l-.967-.253-.253.967.967.253.253-.967zm.427-1.633l.253-.967-.967-.253-.253.967.967.253zm1.311.025l-.242-.97-.007.002.249.968zm1.086-.679l-.741-.671-.008.008.749.663zm.338-4l.726-.687-.01-.01-.716.698zm-1.715-.566l-.206-.978-.016.003-.015.004.237.971zm-.722.365l-.607-.795-.009.008.616.787zm-.737.77l-.794-.609-.003.005.797.604zm-.787 1.203l.862.506.002-.004-.864-.502zm-2.294 2.688l-.535-.844-.008.005-.007.005.55.834zm-1.222.471l-.134-.99h-.009l-.009.002.152.988zm-3.776-3.45l-1 .027v.007l1-.034zm.914-3.458l-.86-.511-.001.002.861.509zm1.107-1.318l-.643-.766-.004.004.647.762zm1.456-.773l-.256-.967-.007.002-.007.002.27.963zm1.737.027l.968.253.253-.967-.968-.253-.253.967zm-.427 1.633l-.253.967.968.253.253-.967-.968-.253zm-1.161-.04l-.235-.973-.007.002.242.97zm-.924.475l-.647-.762-.007.006.654.757zm-.698.863l-.87-.493-.004.008-.005.008.879.477zm-.134 3.707l.767-.641-.008-.01-.759.651zm.711 1.556c.389.102.789.141 1.187.088l-.267-1.982a1.084 1.084 0 01-.414-.04l-.506 1.934zm1.156.091a2.503 2.503 0 001.217-.484l-1.175-1.618a.52.52 0 01-.247.113l.205 1.99zm1.207-.477c.348-.245.669-.583.968-.97l-1.581-1.224c-.231.298-.414.47-.541.561l1.154 1.633zm.965-.965c.298-.381.615-.858.95-1.418l-1.716-1.027c-.31.519-.58.919-.809 1.212l1.575 1.233zm.948-1.414c.322-.533.643-.996.961-1.39l-1.559-1.254a14.846 14.846 0 00-1.114 1.61l1.712 1.034zm.955-1.383a4.97 4.97 0 01.918-.889l-1.173-1.62a6.993 6.993 0 00-1.292 1.24l1.547 1.269zm.918-.889c.278-.2.552-.321.826-.379l-.413-1.957a4.164 4.164 0 00-1.586.716l1.173 1.62zm.826-.379c.25-.053.544-.048.898.044l.506-1.935a3.927 3.927 0 00-1.817-.066l.413 1.957zm.898.044c.345.09.625.238.86.439l1.301-1.519a4.119 4.119 0 00-1.655-.855l-.506 1.935zm.86.439c.24.206.434.463.581.784l1.819-.83a4.22 4.22 0 00-1.099-1.473l-1.301 1.519zm.582.786c.151.33.247.714.276 1.167l1.996-.125a5.267 5.267 0 00-.454-1.876l-1.818.834zm.276 1.167c.027.438-.023.928-.166 1.477l1.935.506c.188-.72.27-1.425.227-2.108l-1.996.125zm-.166 1.477c-.211.808-.528 1.385-.911 1.788l1.449 1.379c.669-.704 1.122-1.609 1.397-2.66l-1.935-.507zm-.918 1.795c-.413.443-.852.712-1.32.847l.553 1.922c.854-.246 1.599-.728 2.23-1.405l-1.463-1.364zm-1.325.848a2.594 2.594 0 01-1.419.026l-.506 1.935c.826.216 1.661.2 2.487-.041l-.562-1.92zm-.704 1.247l.427-1.633-1.935-.506-.427 1.633 1.935.506zm-.794-.918a3.58 3.58 0 001.813.026l-.498-1.937c-.223.057-.485.06-.809-.024l-.506 1.935zm1.806.028a3.113 3.113 0 001.592-.987l-1.497-1.326a1.12 1.12 0 01-.579.372l.484 1.94zm1.585-.978c.455-.502.753-1.147.941-1.867l-1.935-.506c-.134.516-.313.837-.488 1.03l1.482 1.343zm.941-1.867c.176-.672.242-1.33.132-1.944l-1.969.353c.043.239.032.59-.098 1.085l1.935.506zm.132-1.944c-.105-.582-.342-1.117-.75-1.548l-1.453 1.375c.095.1.186.257.234.526l1.969-.353zm-.76-1.558a3.012 3.012 0 00-1.421-.811l-.506 1.935c.227.06.38.154.494.27l1.433-1.394zm-1.421-.811a2.626 2.626 0 00-1.216-.037l.413 1.957a.63.63 0 01.297.015l.506-1.935zm-1.247-.03a2.971 2.971 0 00-1.092.543l1.214 1.589a.99.99 0 01.353-.189l-.475-1.942zm-1.101.55a5.27 5.27 0 00-.914.948l1.586 1.219a3.3 3.3 0 01.56-.592l-1.232-1.575zm-.918.953c-.281.37-.565.806-.855 1.304l1.729 1.005c.261-.448.501-.813.719-1.1l-1.593-1.21zm-.853 1.3a10.919 10.919 0 01-1.04 1.507l1.527 1.291c.423-.5.835-1.098 1.238-1.785l-1.725-1.013zm-1.04 1.507c-.328.388-.639.662-.926.844l1.071 1.689c.497-.315.956-.737 1.382-1.242l-1.527-1.29zm-.941.854a1.91 1.91 0 01-.806.314l.269 1.982a3.91 3.91 0 001.638-.627l-1.101-1.67zm-.824.317a2.34 2.34 0 01-.952-.07l-.506 1.934a4.33 4.33 0 001.762.112l-.304-1.976zm-.952-.07a2.124 2.124 0 01-.883-.45l-1.318 1.505a4.128 4.128 0 001.695.88l.506-1.936zm-.883-.45a2.074 2.074 0 01-.552-.781l-1.847.769c.246.59.606 1.1 1.081 1.517l1.318-1.505zm-.552-.781a3.364 3.364 0 01-.238-1.194l-1.999.067a5.38 5.38 0 00.39 1.896l1.847-.77zm-.238-1.187c-.012-.457.05-.972.201-1.55l-1.935-.505a7.55 7.55 0 00-.265 2.108l1.999-.053zm.201-1.55a5.34 5.34 0 01.574-1.373l-1.721-1.018a7.352 7.352 0 00-.788 1.886l1.935.506zm.573-1.37c.248-.417.547-.771.896-1.068l-1.295-1.524a6.204 6.204 0 00-1.32 1.569l1.719 1.022zm.891-1.064a2.868 2.868 0 011.084-.576l-.541-1.926a4.88 4.88 0 00-1.829.97l1.286 1.532zm1.07-.573c.35-.093.752-.096 1.227.029l.506-1.935c-.76-.2-1.516-.22-2.246-.027l.513 1.933zm.513-1.192l-.427 1.633 1.935.506.427-1.633-1.935-.506zm.793.918c-.549-.143-1.107-.175-1.649-.045l.47 1.944c.156-.037.373-.042.673.036l.506-1.935zm-1.656-.043a3.244 3.244 0 00-1.329.684l1.294 1.525c.157-.134.327-.22.519-.268l-.484-1.94zm-1.336.69c-.367.317-.67.696-.914 1.126l1.74.986a2.24 2.24 0 01.483-.6L132.97 71.5zm-.923 1.142a5.992 5.992 0 00-.525 1.336l1.935.506c.085-.322.201-.618.348-.888l-1.758-.954zm-.525 1.336c-.171.656-.242 1.294-.167 1.894l1.985-.25c-.035-.276-.011-.65.117-1.138l-1.935-.506zm-.167 1.894c.075.595.286 1.15.678 1.606l1.518-1.303c-.091-.105-.176-.27-.211-.552l-1.985.249zm.67 1.596a2.81 2.81 0 001.478.914l.506-1.935c-.225-.059-.358-.152-.45-.262l-1.534 1.283z" fill="#fff" fill-opacity=".6"/></g><g filter="url(#filter1_d_2_362)"><path d="M134.317 105.58l-9.886-9.194 1.107-1.19 9.886 9.193-1.107 1.191zm-5.877-5.993l.48-.478a5.74 5.74 0 011.122 1.439c.28.517.454 1.039.523 1.567a3.528 3.528 0 01-.951 2.92 3.84 3.84 0 01-1.004.795 2.293 2.293 0 01-1.09.295c-.385.01-.786-.083-1.204-.28-.413-.192-.849-.502-1.308-.929l-4.564-4.243 1.114-1.197 4.576 4.255c.364.339.706.557 1.025.653.323.101.629.094.919-.021.295-.11.582-.315.861-.615.275-.296.465-.625.568-.985.099-.356.12-.724.065-1.103a3.52 3.52 0 00-.376-1.106 3.754 3.754 0 00-.756-.967z" fill="#C7C7C7" shape-rendering="crispEdges"/><path d="M134.317 105.58l-.681.732.732.681.681-.732-.732-.681zm-9.886-9.194l-.733-.68-.681.732.733.68.681-.732zm1.107-1.19l.681-.733-.732-.68-.681.732.732.68zm9.886 9.193l.732.681.681-.732-.732-.681-.681.732zm-6.984-4.802l-.705-.71-.738.734.762.708.681-.732zm.48-.478l.688-.726-.705-.667-.688.684.705.709zm1.122 1.439l-.881.474.002.003.879-.477zm.392 3.102l-.953-.301-.002.005.955.296zm-1.824 2.18l-.471-.882-.012.007.483.875zm-1.09.295l-.014-1h-.011l.025 1zm-1.204-.28l.426-.905-.004-.001-.422.906zm-5.872-5.172l-.732-.681-.681.732.732.681.681-.732zm1.114-1.197l.681-.733-.733-.68-.681.732.733.68zm5.601 4.908l.296-.955-.007-.002-.289.957zm.919-.021l-.35-.936-.008.003-.008.003.366.93zm1.429-1.6l.961.275.002-.007-.963-.268zm.065-1.103l.99-.144-.002-.012-.988.156zm-.376-1.106l.884-.467-.004-.008-.88.475zm5.802 4.293l-9.886-9.193-1.362 1.465 9.886 9.193 1.362-1.465zm-9.835-7.78l1.107-1.19-1.464-1.362-1.108 1.19 1.465 1.362zm-.306-1.139l9.886 9.193 1.362-1.464-9.886-9.194-1.362 1.465zm9.835 7.78l-1.108 1.191 1.465 1.362 1.107-1.191-1.464-1.362zm-5.547-3.412l.48-.478-1.41-1.418-.48.478 1.41 1.418zm-.913-.46a4.7 4.7 0 01.929 1.186l1.762-.947a6.734 6.734 0 00-1.315-1.692l-1.376 1.452zm.931 1.189c.227.42.359.825.411 1.22l1.983-.259a5.514 5.514 0 00-.636-1.914l-1.758.953zm.411 1.22c.05.387.018.752-.093 1.104l1.907.602a4.532 4.532 0 00.169-1.965l-1.983.259zm-.095 1.109a2.57 2.57 0 01-.597 1l1.464 1.362a4.585 4.585 0 001.044-1.77l-1.911-.592zm-.597 1a2.875 2.875 0 01-.743.594l.943 1.764a4.86 4.86 0 001.264-.996l-1.464-1.362zm-.755.601c-.207.114-.41.167-.621.17l.029 2a3.297 3.297 0 001.559-.419l-.967-1.751zm-.632.17c-.202.005-.449-.042-.753-.185l-.851 1.81c.531.25 1.086.389 1.655.375l-.051-2zm-.757-.186c-.29-.135-.64-.374-1.049-.755l-1.362 1.465c.509.473 1.031.853 1.567 1.103l.844-1.813zm-1.049-.755l-4.564-4.243-1.362 1.464 4.564 4.244 1.362-1.465zm-4.512-2.83l1.113-1.197-1.465-1.362-1.113 1.197 1.465 1.362zm-.3-1.146l4.576 4.256 1.362-1.465-4.576-4.256-1.362 1.465zm4.576 4.256c.425.395.898.721 1.417.878l.578-1.915c-.118-.036-.329-.146-.633-.428l-1.362 1.465zm1.409.875c.521.162 1.062.16 1.582-.045l-.732-1.861c-.06.024-.132.035-.257-.004l-.593 1.91zm1.567-.039c.477-.179.888-.491 1.242-.871l-1.464-1.362c-.205.22-.367.318-.479.36l.701 1.873zm1.242-.871c.374-.403.647-.867.797-1.391l-1.923-.55a1.413 1.413 0 01-.338.579l1.464 1.362zm.799-1.398a3.651 3.651 0 00.092-1.515l-1.979.288c.036.247.02.474-.04.691l1.927.536zm.09-1.527a4.544 4.544 0 00-.48-1.417l-1.768.935c.144.272.232.536.272.794l1.976-.312zm-.484-1.425a4.75 4.75 0 00-.955-1.225l-1.362 1.465c.238.222.421.459.557.711l1.76-.951z" fill="#fff" fill-opacity=".6"/></g><g filter="url(#filter2_d_2_362)"><path d="M111.503 126.962l-4.956-12.558 1.52-.6 4.957 12.557-1.521.601zm-6.868-1.579l2.229-5.652 1.274-3.091.758 1.562-.816 2.457-1.598 3.995-1.847.729zm-2.111-9.391l4.821 2.973-.252 1.659-6.351-3.928 1.782-.704z" fill="#C7C7C7" shape-rendering="crispEdges"/><path d="M111.503 126.962l-.93.367.367.93.931-.367-.368-.93zm-4.956-12.558l-.368-.93-.93.368.367.93.931-.368zm1.52-.6l.93-.367-.367-.93-.93.367.367.93zm4.957 12.557l.367.93.93-.367-.367-.93-.93.367zm-8.389-.978l-.931-.367-.845 2.143 2.143-.846-.367-.93zm2.229-5.652l-.925-.38-.003.007-.003.007.931.366zm1.274-3.091l.899-.437-.974-2.007-.85 2.063.925.381zm.758 1.562l.949.315.128-.386-.178-.366-.899.437zm-.816 2.457l.929.372.011-.028.009-.029-.949-.315zm-1.598 3.995l.367.93.401-.158.161-.401-.929-.371zm-3.958-8.662l.525-.851-.426-.263-.466.184.367.93zm4.821 2.973l.989.15.099-.654-.563-.347-.525.851zm-.252 1.659l-.526.85 1.287.796.227-1.496-.988-.15zm-6.351-3.928l-.367-.93-1.854.732 1.695 1.048.526-.85zm11.692 9.898l-4.957-12.557-1.861.735 4.957 12.557 1.861-.735zm-5.52-11.259l1.52-.601-.734-1.86-1.521.6.735 1.861zm.223-1.164l4.957 12.557 1.86-.734-4.957-12.557-1.86.734zm5.52 11.26l-1.521.6.735 1.861 1.52-.601-.734-1.86zm-7.092.319l2.229-5.652-1.861-.733-2.229 5.651 1.861.734zm2.223-5.638l1.274-3.091-1.849-.762-1.274 3.092 1.849.761zm-.55-3.036l.758 1.562 1.799-.873-.758-1.562-1.799.873zm.709.811l-.816 2.457 1.898.63.816-2.457-1.898-.63zm-.795 2.401l-1.598 3.994 1.857.743 1.598-3.994-1.857-.743zm-1.037 3.436l-1.848.729.735 1.86 1.847-.729-.734-1.86zM102 116.843l4.82 2.973 1.05-1.702-4.821-2.973-1.049 1.702zm4.357 1.972l-.253 1.658 1.977.301.253-1.659-1.977-.3zm1.262.958l-6.351-3.928-1.052 1.701 6.351 3.928 1.052-1.701zm-6.51-2.147l1.783-.704-.735-1.86-1.782.704.734 1.86z" fill="#fff" fill-opacity=".6"/></g><g filter="url(#filter3_d_2_362)"><path d="M78.294 124.446l-.267 4.888c-.02.375.038.703.175.987.131.289.341.517.632.686.29.168.654.264 1.093.288.41.023.773-.028 1.09-.151.313-.124.563-.295.75-.514.183-.219.281-.46.295-.723l1.624.088a2.15 2.15 0 01-.319.995 2.952 2.952 0 01-.804.863 3.78 3.78 0 01-1.229.584 4.726 4.726 0 01-1.575.161c-.69-.038-1.293-.188-1.806-.451a2.739 2.739 0 01-1.189-1.13c-.278-.485-.398-1.081-.36-1.789l.242-4.423a6.95 6.95 0 00-.024-1.014 3.94 3.94 0 00-.204-.935l.008-.141 1.694.093c.071.192.122.444.152.756.03.319.037.613.022.882zm-.507 4.118l.045-1.142 1.641.09c.463.025.877.01 1.244-.047.367-.05.677-.142.93-.274a1.462 1.462 0 00.827-1.276 1.673 1.673 0 00-.157-.827 1.471 1.471 0 00-.573-.621c-.268-.155-.6-.244-.998-.266a2.687 2.687 0 00-1.334.244c-.392.19-.707.431-.946.723-.245.292-.384.581-.417.866l-.65-.818c.054-.244.18-.51.377-.798a3.916 3.916 0 011.883-1.438c.42-.153.887-.216 1.401-.187.644.035 1.202.191 1.674.47.466.277.822.634 1.068 1.07.24.442.345.926.316 1.452-.027.509-.151.951-.371 1.327-.22.381-.525.69-.913.927-.39.243-.85.417-1.385.523a7.154 7.154 0 01-1.775.105l-1.887-.103z" fill="#C7C7C7" shape-rendering="crispEdges"/><path d="M78.202 130.321l.91-.413-.004-.012-.006-.011-.9.436zm2.816.823l.362.932.007-.003-.37-.929zm.75-.514l.758.652.005-.006.005-.006-.768-.64zm.294-.723l.055-.999-.999-.054-.054.998.998.055zm1.624.088l.998.055.055-.999-.999-.054-.054.998zm-1.123 1.858l-.591-.806-.002.001.593.805zm-1.229.584l-.27-.962-.008.002.278.96zm-3.381-.29l.455-.891-.004-.001-.451.892zm-1.189-1.13l.874-.486-.003-.006-.004-.007-.867.499zm-.142-7.226l.996-.092v-.008l-.001-.008-.995.108zm-.204-.935l-.998-.055-.012.207.072.194.938-.346zm.008-.141l.055-.998-1-.055-.054.999.999.054zm1.694.093l.936-.35-.229-.613-.653-.036-.054.999zm.152.756l.996-.092v-.003l-.996.095zm-.485 5l-.999-.039-.038.984.983.054.054-.999zm.045-1.142l.055-.998-1.014-.056-.04 1.015 1 .039zm2.885.043l-.136-.99-.008.001-.007.001.151.988zm1.522-.797l-.83-.557-.006.01.836.547zm-.496-2.201l.525-.851-.01-.007-.012-.006-.502.864zm-3.277.701l.766.643.008-.01-.774-.633zm-.417.866l-.783.623 1.498 1.885.278-2.392-.993-.116zm-.65-.818l-.977-.218-.104.466.297.374.783-.622zm1.153-1.619l-.628-.778-.001.001.629.777zm1.107-.617l-.343-.939-.006.002.35.937zm3.075.283l.512-.859-.005-.003-.507.862zm1.068 1.07l.878-.477-.004-.007-.004-.007-.87.491zm-.055 2.779l-.863-.506-.003.005.866.501zm-.913.927l-.521-.854-.01.006.53.848zm-5.538-3.648l-.267 4.889 1.997.109.267-4.889-1.997-.109zm-.267 4.889c-.028.511.05 1.014.273 1.476l1.8-.871a.99.99 0 01-.076-.496l-1.997-.109zm.262 1.454c.222.489.581.871 1.04 1.137l1.005-1.729a.502.502 0 01-.223-.234l-1.822.826zm1.04 1.137c.463.269.992.393 1.541.423l.11-1.997c-.329-.018-.528-.087-.646-.155l-1.005 1.729zm1.541.423a3.609 3.609 0 001.508-.218l-.724-1.865a1.602 1.602 0 01-.675.086l-.109 1.997zm1.515-.221c.437-.174.83-.431 1.139-.791l-1.516-1.304a.896.896 0 01-.361.236l.738 1.859zm1.15-.803a2.22 2.22 0 00.524-1.309l-1.997-.109c-.002.031-.009.071-.065.138l1.537 1.28zm-.53-.365l1.624.089.11-1.997-1.624-.089-.11 1.997zm.68-.964c-.008.16-.058.336-.178.536l1.717 1.027c.267-.448.43-.935.459-1.454l-1.998-.109zm-.178.536a1.96 1.96 0 01-.537.57l1.183 1.612c.436-.32.8-.704 1.07-1.155l-1.716-1.027zm-.539.571a2.79 2.79 0 01-.907.427l.543 1.925a4.79 4.79 0 001.55-.742l-1.186-1.61zm-.914.429a3.733 3.733 0 01-1.243.122l-.109 1.997a5.697 5.697 0 001.909-.198l-.557-1.921zm-1.243.122c-.578-.032-1.038-.155-1.405-.343l-.91 1.781c.66.338 1.403.515 2.206.559l.11-1.997zm-1.409-.344a1.741 1.741 0 01-.766-.724l-1.748.972c.374.671.92 1.186 1.61 1.536l.904-1.784zm-.773-.737c-.159-.277-.259-.669-.228-1.236l-1.997-.109c-.046.85.094 1.65.491 2.342l1.734-.997zm-.228-1.236l.242-4.423-1.997-.109-.242 4.423 1.997.109zm.242-4.423c.02-.371.01-.758-.027-1.16l-1.991.184c.029.318.035.606.02.867l1.998.109zm-.028-1.176a4.939 4.939 0 00-.26-1.173l-1.877.692c.062.168.116.396.148.697l1.989-.216zm-.2-.773l.007-.14-1.997-.109-.007.14 1.997.109zm-1.046.804l1.694.092.11-1.997-1.694-.092-.11 1.997zm.812-.556c.03.078.068.235.093.502l1.991-.191a4.007 4.007 0 00-.21-1.011l-1.874.7zm.093.499c.026.278.031.522.02.734l1.997.109a7.029 7.029 0 00-.025-1.028l-1.992.185zm1.51 4.946l.046-1.142-1.999-.078-.045 1.142 1.999.078zm-1.008-.182l1.64.089.11-1.997-1.641-.089-.11 1.997zm1.64.089a6.994 6.994 0 001.45-.056l-.302-1.977a5.013 5.013 0 01-1.038.036l-.11 1.997zm1.435-.054a3.82 3.82 0 001.258-.38l-.927-1.771a1.86 1.86 0 01-.603.17l.272 1.981zm1.258-.38c.388-.202.72-.486.965-.86l-1.673-1.095a.552.552 0 01-.22.184l.928 1.771zm.959-.85c.256-.382.379-.813.403-1.256l-1.997-.109a.479.479 0 01-.067.25l1.66 1.115zm.403-1.256a2.677 2.677 0 00-.254-1.314l-1.804.864a.676.676 0 01.06.341l1.998.109zm-.254-1.314a2.47 2.47 0 00-.95-1.04l-1.05 1.702a.48.48 0 01.196.202l1.804-.864zm-.973-1.053c-.438-.255-.934-.372-1.446-.4l-.109 1.997c.284.015.453.075.55.132l1.005-1.729zm-1.446-.4c-.642-.035-1.259.069-1.824.342l.872 1.8c.219-.106.49-.164.843-.145l.11-1.997zm-1.824.342a3.76 3.76 0 00-1.284.99l1.548 1.266c.134-.163.327-.32.608-.456l-.872-1.8zm-1.276.98c-.33.394-.582.86-.644 1.394l1.986.231c.005-.038.031-.149.19-.339l-1.532-1.286zm1.132.887l-.65-.819-1.567 1.245.651.819 1.566-1.245zm-.458.022c.018-.081.075-.229.227-.451l-1.65-1.131c-.242.355-.438.739-.529 1.146l1.952.436zm.227-.451c.135-.196.323-.4.58-.608l-1.258-1.555c-.382.309-.71.652-.972 1.032l1.65 1.131zm.58-.608a2.95 2.95 0 01.828-.458l-.7-1.874a4.946 4.946 0 00-1.385.776l1.256 1.556zm.822-.456c.273-.1.602-.15 1.003-.128l.109-1.997a4.502 4.502 0 00-1.799.247l.687 1.878zm1.003-.128c.512.028.908.149 1.22.333l1.015-1.723c-.632-.373-1.35-.565-2.126-.607l-.11 1.997zm1.216.33c.329.197.556.432.709.704l1.742-.983a3.89 3.89 0 00-1.427-1.438l-1.024 1.717zm.701.69c.147.27.216.569.197.92l1.997.109a3.673 3.673 0 00-.437-1.984l-1.757.955zm.197.92c-.02.377-.11.659-.236.875l1.725 1.011c.314-.534.473-1.136.508-1.777l-1.997-.109zm-.239.88a1.593 1.593 0 01-.568.574l1.041 1.707a3.58 3.58 0 001.258-1.28l-1.731-1.001zm-.577.58a3.127 3.127 0 01-1.049.39l.389 1.962a5.083 5.083 0 001.72-.656l-1.06-1.696zm-1.049.39a6.174 6.174 0 01-1.526.088l-.11 1.997a8.183 8.183 0 002.025-.123l-.389-1.962zm-1.526.088l-1.887-.103-.11 1.997 1.888.103.109-1.997z" fill="#fff" fill-opacity=".6"/></g><g filter="url(#filter4_d_2_362)"><path d="M53.383 127.883l3.572-7.175 1.455.724-4.237 8.514-1.416-.705.626-1.358zm-3.349.062l.682-1.35c.107.086.215.16.322.22.1.062.218.128.355.196.335.167.658.262.967.285.31.023.6-.016.872-.116.273-.1.527-.255.762-.465.228-.207.434-.458.62-.752l.526-.032a7.464 7.464 0 01-.87 1.373c-.33.399-.688.718-1.075.957a2.61 2.61 0 01-1.226.411c-.434.032-.883-.066-1.344-.296a2.169 2.169 0 01-.343-.22 1.22 1.22 0 01-.248-.211z" fill="#C7C7C7" shape-rendering="crispEdges"/><path d="M53.383 127.883l-.895-.445-.007.013-.006.013.908.419zm3.572-7.175l.445-.896-.895-.445-.446.895.896.446zm1.455.724l.896.446.445-.896-.895-.445-.446.895zm-4.237 8.514l-.446.895.896.445.445-.895-.895-.445zm-1.416-.705l-.908-.419-.407.881.869.433.446-.895zm-2.723-1.296l-.892-.451-.28.555.373.497.8-.601zm.682-1.35l.625-.78-.962-.772-.556 1.101.893.451zm.322.22l.533-.847-.022-.014-.023-.012-.488.873zm2.956-.1l.666.746.008-.007-.674-.739zm.62-.752l-.062-.998-.51.031-.274.433.846.534zm.526-.032l.896.445.771-1.55-1.728.107.061.998zm-.87 1.373l.771.637.007-.009-.778-.628zm-1.075.957l-.525-.851-.006.004.531.847zm-1.226.411l-.069-.998-.004.001.073.997zm-1.687-.516l.607-.795-.015-.011-.015-.011-.577.817zm3.996.173l3.572-7.176-1.79-.891-3.572 7.176 1.79.891zm2.231-6.726l1.456.724.891-1.79-1.456-.725-.89 1.791zm1.006-.616l-4.237 8.513 1.79.891 4.238-8.513-1.79-.891zm-2.897 8.063l-1.416-.705-.891 1.791 1.416.705.892-1.791zm-.953.61l.626-1.357-1.816-.839-.626 1.358 1.816.838zm-2.738-1.265l.681-1.349-1.785-.902-.681 1.35 1.785.901zm-.837-1.02c.146.117.3.223.46.313l.976-1.746a1.316 1.316 0 01-.185-.127l-1.25 1.56zm.416.286c.135.085.283.166.441.245l.891-1.791a3.046 3.046 0 01-.267-.147l-1.065 1.693zm.441.245a3.6 3.6 0 001.339.387l.148-1.995a1.613 1.613 0 01-.596-.183l-.891 1.791zm1.339.387c.441.033.876-.022 1.291-.174l-.69-1.878a1.04 1.04 0 01-.453.057l-.148 1.995zm1.291-.174c.4-.147.762-.371 1.083-.658l-1.332-1.492a1.38 1.38 0 01-.44.272l.69 1.878zm1.09-.665c.302-.275.565-.597.792-.957l-1.69-1.068a2.63 2.63 0 01-.448.547l1.347 1.478zm.008-.493l.527-.032-.123-1.996-.527.032.123 1.996zm-.43-1.476a6.482 6.482 0 01-.753 1.191l1.556 1.256c.375-.464.703-.984.988-1.556l-1.79-.891zm-.746 1.182a3.385 3.385 0 01-.83.743l1.051 1.702a5.397 5.397 0 001.321-1.171l-1.542-1.274zm-.835.747a1.632 1.632 0 01-.764.261l.139 1.995a3.627 3.627 0 001.687-.562l-1.062-1.694zm-.768.261c-.226.017-.495-.03-.826-.194l-.89 1.79c.592.295 1.219.446 1.863.398l-.147-1.994zm-.826-.194a1.196 1.196 0 01-.181-.12l-1.213 1.59c.158.121.327.232.503.32l.891-1.79zm-.211-.142a1.804 1.804 0 01-.086-.064l.009.008.019.02c.008.01.02.023.032.04l-1.598 1.203c.143.19.344.338.47.427l1.154-1.634z" fill="#fff" fill-opacity=".6"/></g><g filter="url(#filter5_d_2_362)"><path d="M30.947 115.305l8.848-7.09 1.022 1.276-10.274 8.233-.934-1.166 1.338-1.253zm-1.784-6.781l.144-.115a7.162 7.162 0 011.656-1.012 4.735 4.735 0 011.644-.394 3.27 3.27 0 011.509.267c.473.206.895.54 1.265 1.002.377.471.633.949.767 1.435.134.486.153.974.057 1.463-.096.49-.291.977-.586 1.461-.299.48-.687.956-1.164 1.429l-.769.615a8.249 8.249 0 01-1.721.873 4.7 4.7 0 01-1.59.294 3.14 3.14 0 01-1.437-.346c-.45-.225-.863-.57-1.236-1.037-.374-.466-.614-.953-.72-1.461a3.203 3.203 0 01.036-1.528c.136-.514.388-1.02.755-1.517.36-.498.823-.975 1.39-1.429zm1.166 1.16l-.144.116a5.73 5.73 0 00-.949.952 3.364 3.364 0 00-.573 1.056 2.218 2.218 0 00-.095 1.09c.055.368.222.727.5 1.074.257.32.535.555.835.705.297.145.605.225.924.239a2.99 2.99 0 00.956-.101c.313-.086.616-.205.908-.356l1.776-1.423a5.08 5.08 0 00.598-1.11 2.55 2.55 0 00.152-1.202c-.051-.41-.243-.823-.577-1.239-.274-.343-.582-.581-.921-.715a2.305 2.305 0 00-1.092-.139 3.498 3.498 0 00-1.155.329 5.871 5.871 0 00-1.143.724z" fill="#C7C7C7" shape-rendering="crispEdges"/><path d="M30.947 115.305l-.625-.781-.03.024-.028.027.683.73zm8.848-7.09l.78-.625-.625-.781-.78.626.625.78zm1.022 1.276l.626.78.78-.625-.625-.781-.78.626zm-10.274 8.233l-.78.625.625.78.78-.625-.625-.78zm-.934-1.166l-.684-.73-.676.632.58.723.78-.625zm1.354-9.161l-.392-.92-.002.001.394.919zm1.644-.394l.045.999h.009l-.054-.999zm3.54 2.704l.965-.266-.964.266zm-.528 2.924l.849.529.005-.008-.854-.521zm-1.164 1.429l.625.78.04-.033.038-.037-.703-.71zm-.769.615l.545.839.042-.027.039-.031-.626-.781zm-3.31 1.167l-.005 1h.001l.003-1zm-1.438-.346l.456-.89-.01-.005-.446.895zm-1.957-2.498l.979-.206-.002-.009-.977.215zm.792-3.045l.805.594.007-.009-.812-.585zm1.463.799l.788.616.002-.003-.79-.613zm-.573 1.056l.947.322.003-.01.003-.01-.953-.302zm-.095 1.09l.989-.148-.002-.014-.987.162zm1.335 1.779l-.446.895.007.003.44-.898zm.924.239l.058-.998-.013-.001-.045.999zm.956-.101l.256.967.009-.002-.265-.965zm.908-.356l.46.888.088-.045.077-.062-.625-.781zm1.776-1.423l.626.78.11-.087.08-.115-.816-.578zm.598-1.11l.933.361.002-.006-.935-.355zm.152-1.202l.993-.111-.001-.012-.992.123zm-1.498-1.954l.365-.931-.005-.002-.36.933zm-1.092-.139l.096.996.013-.002-.109-.994zm-1.155.329l-.427-.904-.002.001.429.903zm.1 7.125l8.848-7.09-1.25-1.56-8.848 7.089 1.25 1.561zm7.443-7.245l1.022 1.276 1.56-1.251-1.022-1.275-1.56 1.25zm1.177-.13l-10.274 8.233 1.25 1.561 10.275-8.233-1.251-1.561zm-8.869 8.388l-.934-1.166-1.56 1.251.933 1.166 1.561-1.251zm-1.031.19l1.338-1.253-1.366-1.46-1.339 1.253 1.367 1.46zm-.504-7.984l.144-.115-1.25-1.561-.144.116 1.25 1.56zm.144-.115a6.172 6.172 0 011.425-.873l-.788-1.838a8.183 8.183 0 00-1.887 1.15l1.25 1.561zm1.423-.872a3.727 3.727 0 011.297-.315l-.09-1.998a5.745 5.745 0 00-1.99.473l.783 1.84zm1.306-.315c.382-.021.73.042 1.055.184l.8-1.833a4.275 4.275 0 00-1.963-.348l.108 1.997zm1.055.184c.304.133.6.357.884.711l1.561-1.25c-.456-.57-1.003-1.014-1.645-1.294l-.8 1.833zm.884.711c.31.386.492.745.584 1.076l1.928-.532c-.177-.64-.505-1.238-.951-1.794l-1.56 1.25zm.584 1.076c.093.338.105.669.04 1.006l1.963.383c.125-.643.1-1.287-.075-1.921l-1.928.532zm.04 1.006c-.07.358-.217.735-.46 1.132l1.709 1.041a5.443 5.443 0 00.714-1.79l-1.963-.383zm-.454 1.124c-.25.402-.587.818-1.019 1.246l1.407 1.421a8.91 8.91 0 001.31-1.61l-1.698-1.057zm-.94 1.176l-.769.616 1.25 1.561.769-.616-1.25-1.561zm-.688.558a7.27 7.27 0 01-1.512.769l.67 1.885a9.282 9.282 0 001.931-.977l-1.09-1.677zm-1.512.769c-.465.165-.88.237-1.252.236l-.006 2a5.706 5.706 0 001.927-.351l-.67-1.885zm-1.25.236a2.146 2.146 0 01-.986-.236l-.912 1.78a4.135 4.135 0 001.889.456l.009-2zm-.996-.241c-.299-.149-.602-.393-.902-.767l-1.56 1.25c.447.559.967 1.006 1.57 1.307l.892-1.79zm-.902-.767c-.29-.363-.452-.709-.522-1.042l-1.957.411c.143.683.461 1.311.918 1.881l1.561-1.25zm-.524-1.051a2.202 2.202 0 01.027-1.057l-1.933-.511a4.198 4.198 0 00-.047 1.998l1.953-.43zm.027-1.057c.1-.374.288-.767.593-1.179l-1.609-1.189a5.489 5.489 0 00-.917 1.857l1.933.511zm.6-1.188a6.407 6.407 0 011.203-1.234l-1.25-1.56a8.403 8.403 0 00-1.576 1.624l1.623 1.17zm1.119-1.634l-.144.115 1.25 1.561.145-.115-1.251-1.561zm-.144.115a6.71 6.71 0 00-1.114 1.12l1.58 1.226a4.75 4.75 0 01.784-.785l-1.25-1.561zm-1.112 1.117c-.33.422-.582.879-.738 1.369l1.906.605c.075-.234.204-.482.408-.742l-1.576-1.232zm-.731 1.349a3.22 3.22 0 00-.136 1.574l1.974-.323a1.222 1.222 0 01.055-.606l-1.893-.645zm-.138 1.561c.086.574.342 1.093.709 1.551l1.56-1.25c-.189-.237-.267-.434-.291-.597l-1.978.296zm.709 1.551c.327.409.714.748 1.169.975l.893-1.79c-.145-.072-.316-.203-.501-.435l-1.561 1.25zm1.176.978c.415.204.857.32 1.318.34l.09-1.998a1.317 1.317 0 01-.529-.138l-.88 1.796zm1.306.34c.426.024.85-.022 1.269-.133l-.513-1.933c-.225.06-.438.081-.641.069l-.115 1.997zm1.278-.135a5.64 5.64 0 001.103-.433l-.92-1.776c-.23.12-.468.213-.713.28l.53 1.929zm1.268-.54l1.777-1.424-1.25-1.561-1.777 1.424 1.25 1.561zm1.967-1.626c.294-.414.533-.857.715-1.327l-1.865-.722a4.076 4.076 0 01-.481.892l1.631 1.157zm.717-1.333a3.555 3.555 0 00.21-1.668l-1.987.221c.028.257-.002.498-.093.738l1.87.709zm.209-1.68c-.08-.64-.372-1.222-.788-1.742l-1.561 1.251c.25.313.342.557.364.736l1.985-.245zm-.788-1.742c-.362-.451-.804-.81-1.337-1.02l-.73 1.862c.146.058.318.175.506.409l1.56-1.251zm-1.342-1.022a3.303 3.303 0 00-1.56-.2l.217 1.988c.225-.024.428.003.623.078l.72-1.866zm-1.547-.201a4.484 4.484 0 00-1.486.42l.852 1.809c.295-.139.569-.214.825-.238l-.191-1.991zm-1.49.421a6.808 6.808 0 00-1.338.847l1.25 1.561c.316-.253.632-.452.947-.602l-.858-1.806z" fill="#fff" fill-opacity=".6"/></g><g filter="url(#filter6_d_2_362)"><path d="M20.998 87.316a4.67 4.67 0 01-.015 1.832 4.084 4.084 0 01-.702 1.526 4.26 4.26 0 01-1.283 1.12c-.519.3-1.107.508-1.764.624l-.364.065c-.761.135-1.46.142-2.093.022a4.62 4.62 0 01-1.686-.647 3.99 3.99 0 01-1.176-1.148 3.836 3.836 0 01-.59-1.467c-.119-.67-.106-1.267.04-1.792.143-.531.395-.99.756-1.375.354-.384.798-.7 1.33-.95a7.047 7.047 0 011.778-.547l.719-.127 1.238 6.993-1.306.231-.956-5.391-.12.021a4.05 4.05 0 00-1.166.475 2.212 2.212 0 00-.847.863c-.198.363-.248.818-.15 1.366a2.214 2.214 0 001.225 1.63c.34.167.736.272 1.19.317a5.66 5.66 0 001.53-.084l.363-.064a4.3 4.3 0 001.222-.404c.364-.196.673-.438.925-.726a2.68 2.68 0 00.538-.997c.105-.376.12-.783.042-1.222-.1-.565-.3-1.023-.6-1.375-.3-.351-.67-.64-1.109-.866l.599-1.105a4.55 4.55 0 011.01.615c.332.263.625.606.879 1.031.253.42.434.938.543 1.555z" fill="#C7C7C7" shape-rendering="crispEdges"/><path d="M20.983 89.148l.974.228.003-.013-.977-.215zm-.702 1.526l.798.603.004-.007-.802-.596zm-5.504 1.831l.185-.982h-.003l-.182.983zm-3.413-5.054l.964.266.002-.005-.966-.261zm.757-1.375l.73.683.004-.005-.734-.678zm1.33-.95l.424.906h.003l-.426-.906zm2.497-.674l.984-.174-.174-.985-.985.175.175.984zm1.238 6.993l.175.985.984-.175-.174-.984-.985.174zm-1.306.231l-.985.175.174.984.985-.174-.174-.985zm-.956-5.391l.985-.175-.174-.984-.985.174.175.985zm-.12.021l-.175-.984-.027.004-.027.007.228.973zm-1.166.475l.503.863.011-.006-.514-.858zm-.586 3.192l.807-.59-.005-.007-.004-.006-.798.603zm5.12.432l.457.89.007-.005.008-.004-.473-.881zm.924-.726l.753.658.008-.01-.761-.648zm.538-.997l.96.278.002-.007-.962-.271zm-1.667-3.463l-.88-.476-.485.898.907.467.458-.889zm.599-1.105l.397-.918-.84-.364-.437.806.88.475zm1.889 1.646l-.859.513.003.004.856-.517zm-.441 1.73c.095.54.086 1.018-.007 1.443l1.953.43a5.674 5.674 0 00.023-2.222l-1.97.349zm-.004 1.43a3.09 3.09 0 01-.532 1.157l1.605 1.194c.42-.566.712-1.201.874-1.895l-1.947-.456zm-.527 1.15c-.252.334-.576.62-.987.858L19.5 92.66a5.26 5.26 0 001.58-1.382l-1.596-1.206zm-.987.858a4.35 4.35 0 01-1.437.506l.35 1.97a6.35 6.35 0 002.09-.745l-1.003-1.73zm-1.437.506l-.363.064.349 1.97.363-.065-.349-1.97zm-.363.064c-.666.118-1.24.118-1.734.025l-.37 1.965c.773.146 1.595.131 2.453-.02l-.35-1.97zm-1.737.024a3.626 3.626 0 01-1.325-.504l-1.086 1.68a5.62 5.62 0 002.046.79l.365-1.966zm-1.325-.504a2.993 2.993 0 01-.886-.861l-1.666 1.106a4.99 4.99 0 001.466 1.435l1.086-1.68zm-.886-.861a2.842 2.842 0 01-.439-1.088l-1.969.349c.117.662.367 1.28.742 1.844l1.666-1.105zm-.439-1.088c-.098-.558-.077-1.001.02-1.352l-1.929-.532c-.193.7-.198 1.452-.06 2.233l1.97-.35zm.02-1.357a2.22 2.22 0 01.522-.953l-1.46-1.366a4.203 4.203 0 00-.992 1.796l1.93.523zm.526-.958c.256-.277.59-.52 1.02-.722l-.847-1.811a5.207 5.207 0 00-1.642 1.177l1.47 1.356zm1.023-.723a6.052 6.052 0 011.526-.467l-.349-1.97a8.041 8.041 0 00-2.029.628l.852 1.81zm1.526-.467l.718-.127-.349-1.97-.718.128.349 1.97zm-.44-.937l1.238 6.992 1.969-.348-1.239-6.993-1.969.349zm2.048 5.833l-1.307.232.349 1.97 1.307-.232-.35-1.97zm-.148 1.042l-.955-5.392-1.97.35.956 5.39 1.97-.348zM14.75 85.3l-.121.022.349 1.969.12-.022-.348-1.969zm-.175.033c-.513.12-.998.318-1.452.59l1.03 1.715c.277-.167.57-.285.88-.358l-.458-1.947zm-1.44.584c-.52.302-.934.721-1.222 1.249l1.756.957c.108-.197.258-.354.472-.479l-1.007-1.728zm-1.222 1.249c-.339.62-.38 1.325-.257 2.019l1.969-.35c-.071-.402-.012-.608.044-.712l-1.756-.957zm-.257 2.019c.09.509.287.978.598 1.39l1.596-1.205a1.215 1.215 0 01-.225-.534l-1.97.349zm.588 1.378c.309.421.711.745 1.182.975l.88-1.795a1.174 1.174 0 01-.447-.36l-1.614 1.18zm1.182.975c.466.229.983.36 1.532.414l.195-1.99a2.461 2.461 0 01-.847-.22l-.88 1.796zm1.532.414a6.653 6.653 0 001.802-.094l-.35-1.97a4.668 4.668 0 01-1.257.073l-.195 1.99zm1.802-.094l.363-.065-.349-1.969-.363.064.349 1.97zm.363-.065a5.298 5.298 0 001.506-.499l-.915-1.779a3.294 3.294 0 01-.94.309l.35 1.97zm1.521-.507a4.26 4.26 0 001.205-.95l-1.506-1.316c-.167.192-.378.36-.645.504l.946 1.762zm1.213-.958c.343-.402.59-.86.737-1.368l-1.921-.556a1.655 1.655 0 01-.338.625l1.522 1.299zm.739-1.375a3.71 3.71 0 00.065-1.667l-1.97.349c.055.31.04.564-.02.775l1.925.543zm.065-1.667c-.124-.699-.384-1.334-.825-1.85l-1.52 1.299c.159.186.299.468.375.9l1.97-.349zm-.825-1.85a4.613 4.613 0 00-1.411-1.106l-.916 1.778c.331.17.596.38.806.627l1.52-1.3zm-.99.26l.599-1.106-1.759-.953-.598 1.106 1.758.952zm-.677-.665c.251.11.514.267.787.482l1.24-1.569a5.546 5.546 0 00-1.233-.748l-.794 1.835zm.787.482c.222.176.439.422.64.76l1.718-1.025a4.73 4.73 0 00-1.118-1.304l-1.24 1.57zm.643.764c.174.29.32.684.415 1.213l1.969-.349c-.125-.706-.34-1.348-.672-1.897L19.6 86.277z" fill="#fff" fill-opacity=".6"/></g><g filter="url(#filter7_d_2_362)"><path d="M9.553 59.546l1.195.36-1.479 4.923-1.195-.358 1.48-4.925zM6.361 62.14l.468-1.557 9.065 2.722c.309.093.556.115.742.067a.714.714 0 00.423-.277c.096-.136.17-.291.222-.465a2.67 2.67 0 00.088-.414c.015-.155.026-.27.031-.349l1.274.373a3.7 3.7 0 01-.038.522 3.88 3.88 0 01-.155.733c-.115.381-.296.71-.544.984-.247.274-.577.454-.988.538-.414.078-.925.025-1.53-.157L6.36 62.14z" fill="#C7C7C7" shape-rendering="crispEdges"/><path d="M9.553 59.546l.288-.957-.958-.288-.288.958.958.287zm1.195.36l.958.287.288-.958-.958-.288-.288.958zM9.27 64.828l-.287.958.958.288.287-.958-.958-.288zm-1.195-.358l-.958-.288-.287.958.958.287.287-.957zm-1.713-2.332l-.958-.288-.287.958.957.288.288-.958zm.468-1.557l.287-.958-.957-.288-.288.958.958.288zm10.54 1.633l.99.132.003-.015.002-.016-.995-.101zm.031-.349l.281-.96-1.198-.35-.08 1.245.997.065zm1.274.373l1-.016-.012-.736-.707-.207-.281.96zm-.038.522l-.992-.127-.002.016-.001.016.995.095zm-1.686 2.255l.183.983.01-.001.008-.002-.201-.98zm-7.685-4.512l1.196.359.575-1.916-1.195-.358-.576 1.915zm.526-.886l-1.48 4.924 1.916.575 1.48-4.924-1.916-.575zm-.234 4.254l-1.195-.36-.575 1.916 1.195.36.575-1.916zm-.525.886l1.479-4.924-1.916-.575-1.479 4.924 1.916.575zM7.32 62.426l.467-1.558-1.915-.575-.468 1.557 1.916.576zm-.778-.888l9.066 2.723.575-1.915-9.066-2.723-.575 1.915zm9.066 2.723c.378.114.835.193 1.28.077l-.502-1.936c.045-.012.057-.005.016-.008a1.16 1.16 0 01-.219-.048l-.575 1.915zm1.28.077c.379-.098.737-.31.99-.669L16.24 62.52a.35.35 0 01.092-.09c.033-.02.054-.026.052-.026l.502 1.936zm.99-.669c.163-.232.281-.486.362-.754l-1.916-.575a.608.608 0 01-.082.178l1.635 1.151zm.362-.754a3.57 3.57 0 00.12-.569l-1.981-.265c-.014.1-.032.186-.055.26l1.916.575zm.125-.6c.016-.157.028-.288.034-.385l-1.996-.13a9.55 9.55 0 01-.028.312l1.99.203zm-1.245.51l1.273.373.563-1.92-1.274-.372-.562 1.919zm.555-.57c0 .068-.006.19-.03.378l1.984.253c.03-.236.049-.462.046-.664l-2 .033zm-.033.41c-.012.123-.046.3-.118.54l1.915.575c.097-.32.166-.632.194-.926l-1.991-.189zm-.118.54a1.535 1.535 0 01-.328.602l1.485 1.34c.354-.393.604-.854.758-1.367l-1.915-.575zm-.328.602c-.086.095-.215.181-.447.229l.403 1.959c.59-.122 1.12-.395 1.529-.848l-1.485-1.34zm-.429.225c-.199.037-.537.026-1.06-.132l-.575 1.916c.688.207 1.372.3 2.002.182l-.367-1.966zm-1.06-.132L6.65 61.18l-.576 1.916 9.058 2.72.575-1.916z" fill="#fff" fill-opacity=".6"/></g><g filter="url(#filter8_d_2_362)"><path d="M25.694 37.902a2.073 2.073 0 00-.675-.436 1.506 1.506 0 00-.786-.083c-.29.035-.632.141-1.028.317-.391.172-.857.419-1.397.741-.568.336-1.11.613-1.624.83a5.992 5.992 0 01-1.477.415 3.156 3.156 0 01-1.322-.09 2.927 2.927 0 01-1.17-.69 3.113 3.113 0 01-1.006-2.557 4.26 4.26 0 01.399-1.514 5.674 5.674 0 011.022-1.486c.654-.703 1.344-1.174 2.069-1.412.725-.246 1.424-.296 2.096-.15.669.14 1.248.44 1.737.894l-1.15 1.236a2.58 2.58 0 00-1.142-.643 2.119 2.119 0 00-1.278.084c-.442.157-.88.47-1.316.937-.41.442-.683.868-.818 1.28-.134.41-.153.793-.057 1.146.1.349.295.659.587.93.197.184.415.31.654.38.239.063.508.07.81.021a4.286 4.286 0 001.014-.33c.375-.17.796-.399 1.262-.685.645-.393 1.24-.696 1.783-.91.543-.216 1.047-.34 1.51-.373.463-.042.896.013 1.3.164.403.143.787.384 1.151.724.382.355.656.753.821 1.195.165.442.224.908.175 1.399-.048.49-.2.994-.455 1.509a6.547 6.547 0 01-1.071 1.5 6.33 6.33 0 01-1.371 1.114 5.21 5.21 0 01-1.6.636 3.87 3.87 0 01-1.649-.009c-.543-.13-1.05-.411-1.517-.846l1.15-1.236c.321.3.656.494 1.003.585.343.088.69.094 1.04.019a3.27 3.27 0 001.023-.43 4.95 4.95 0 00.91-.772c.404-.434.685-.856.844-1.268.159-.413.199-.8.12-1.162a1.816 1.816 0 00-.57-.974z" fill="#C7C7C7" shape-rendering="crispEdges"/><path d="M25.02 37.466l-.381.925.014.006.014.005.352-.936zm-.787-.083l.121.993.013-.002-.134-.991zm-1.028.317l.402.916.005-.002-.407-.914zm-1.397.741l.509.861.004-.002-.513-.859zm-1.624.83l.381.925.009-.004-.39-.92zM15.21 36.35l.997.065v-.002l-.997-.063zm3.49-4.412l.311.95.01-.003-.321-.947zm2.096-.15l-.211.977h.004l.207-.978zm1.737.894l.732.681.681-.732-.732-.681-.681.732zm-1.15 1.236l-.68.732.732.681.681-.732-.732-.681zm-1.142-.643l-.246.97.006.001.24-.97zm-1.278.084l.335.942.01-.004-.345-.938zm-2.191 3.363l-.966.262.004.013.962-.275zm1.241 1.31l-.281.96.015.005.015.004.251-.968zm.81.021l.158.987.011-.002-.17-.985zm1.014-.33l.41.913.005-.002-.415-.91zm1.262-.685l-.52-.855-.003.002.523.853zm3.293-1.283l.072.998.009-.001h.009l-.09-.997zm1.3.164l-.351.937.008.003.008.003.334-.943zm1.692 4.827l.893.45.003-.006-.896-.444zm-2.442 2.614l.514.857.003-.002-.517-.855zm-1.6.636l.203.979.006-.001-.21-.978zm-1.649-.009l-.232.973.008.002.006.001.218-.976zm-1.517-.846l-.732-.681-.681.732.732.681.681-.732zm1.15-1.236l.68-.732-.732-.681-.68.732.731.681zm1.003.585l-.253.968.007.002.246-.97zm1.04.019l.209.978.009-.002-.218-.976zm1.023-.43l.532.847.008-.005.008-.005-.549-.836zm1.873-3.202l-.98.202.004.013.976-.215zm.111-1.706a3.068 3.068 0 00-1.004-.64l-.704 1.872c.087.033.203.1.346.232l1.362-1.464zm-.975-.628a2.504 2.504 0 00-1.302-.15l.269 1.982c.15-.02.23 0 .272.017l.76-1.85zm-1.289-.152c-.423.052-.865.198-1.312.396l.813 1.828c.345-.154.587-.22.742-.238l-.243-1.986zm-1.307.394a14.02 14.02 0 00-1.508.799L22.32 39.3c.519-.31.945-.535 1.286-.684l-.803-1.832zm-1.505.796c-.536.317-1.038.573-1.505.77l.78 1.842a14.736 14.736 0 001.743-.89L21.3 37.581zm-1.496.767a4.99 4.99 0 01-1.23.347l.267 1.983a6.983 6.983 0 001.725-.481l-.762-1.85zm-1.23.347a2.146 2.146 0 01-.906-.057l-.564 1.92c.561.164 1.144.2 1.736.12l-.265-1.983zm-.906-.057a1.926 1.926 0 01-.77-.464l-1.362 1.465c.46.428.983.747 1.568.918l.564-1.919zm-.77-.464a2.115 2.115 0 01-.55-.794l-1.865.722c.227.588.584 1.1 1.053 1.537l1.362-1.465zm-.55-.794a2.23 2.23 0 01-.14-.965l-1.996-.13a4.23 4.23 0 00.271 1.817l1.865-.721zm-.14-.967a3.26 3.26 0 01.31-1.16l-1.818-.834a5.256 5.256 0 00-.488 1.867l1.996.127zm.31-1.16c.183-.398.459-.806.845-1.222l-1.465-1.362a6.671 6.671 0 00-1.198 1.75l1.817.835zm.845-1.222c.568-.611 1.12-.97 1.649-1.143l-.624-1.9c-.922.302-1.75.885-2.49 1.681l1.465 1.362zm1.658-1.146c.573-.194 1.088-.223 1.564-.12l.423-1.955c-.87-.188-1.753-.116-2.63.181l.643 1.894zm1.568-.12c.496.106.91.32 1.263.65l1.362-1.465a4.593 4.593 0 00-2.21-1.14l-.415 1.956zM21.8 32l-1.15 1.236 1.465 1.362 1.15-1.236L21.8 32zm.264 1.184a3.578 3.578 0 00-1.584-.88l-.48 1.94c.224.055.457.176.702.404l1.362-1.465zm-1.578-.879a3.117 3.117 0 00-1.87.114l.691 1.877c.267-.097.486-.103.687-.053l.492-1.938zm-1.859.11c-.638.227-1.206.654-1.713 1.199l1.465 1.362c.363-.39.672-.588.918-.676l-.67-1.884zm-1.713 1.199c-.473.509-.843 1.058-1.036 1.65l1.901.621c.075-.23.251-.534.6-.91l-1.465-1.361zm-1.036 1.65c-.184.562-.228 1.145-.072 1.719l1.93-.524c-.036-.133-.042-.314.043-.574l-1.901-.62zm-.069 1.732c.155.54.456 1.005.868 1.387l1.362-1.464a1.02 1.02 0 01-.307-.473l-1.923.55zm.868 1.387c.301.28.654.49 1.054.608l.563-1.919a.63.63 0 01-.255-.153l-1.362 1.465zM17.76 39c.4.103.813.105 1.219.04l-.317-1.975a.989.989 0 01-.4-.001L17.761 39zm1.23.038c.41-.07.83-.212 1.255-.403l-.82-1.824a3.31 3.31 0 01-.774.256l.34 1.97zm1.26-.405c.422-.193.88-.443 1.37-.744l-1.046-1.705c-.442.272-.826.48-1.154.63l.83 1.819zm1.367-.742c.61-.371 1.152-.646 1.63-.835l-.734-1.86c-.61.24-1.255.572-1.936.986l1.04 1.709zm1.63-.835c.473-.186.875-.28 1.215-.304l-.144-1.995c-.587.042-1.19.196-1.805.439l.734 1.86zm1.233-.306a1.9 1.9 0 01.859.105l.701-1.873a3.913 3.913 0 00-1.74-.224l.18 1.992zm.875.11c.255.091.524.253.805.514l1.362-1.465a4.33 4.33 0 00-1.498-.933l-.669 1.885zm.805.514c.28.26.46.532.566.813l1.873-.7a4.118 4.118 0 00-1.077-1.578l-1.362 1.465zm.566.813c.109.292.15.605.116.95l1.99.197a4.077 4.077 0 00-.233-1.848l-1.873.701zm.116.95a3.38 3.38 0 01-.356 1.164l1.792.888c.3-.606.492-1.226.554-1.855l-1.99-.196zm-.353 1.158a5.558 5.558 0 01-.91 1.27l1.464 1.361a7.542 7.542 0 001.232-1.731l-1.786-.9zm-.91 1.27c-.34.364-.724.676-1.156.938l1.034 1.712a7.333 7.333 0 001.586-1.289l-1.464-1.362zm-1.154.936a4.21 4.21 0 01-1.295.516l.419 1.956a6.213 6.213 0 001.905-.757l-1.03-1.715zm-1.289.515c-.42.087-.825.084-1.227-.006l-.436 1.952a4.868 4.868 0 002.07.012l-.407-1.958zm-1.213-.002c-.353-.085-.708-.272-1.068-.607l-1.362 1.465c.576.535 1.232.912 1.966 1.087l.464-1.945zm-1.017.807l1.15-1.236-1.465-1.362-1.149 1.236 1.464 1.362zm-.264-1.185c.416.387.893.68 1.432.82l.507-1.934c-.156-.04-.349-.139-.577-.35l-1.362 1.464zm1.44.823a3.25 3.25 0 001.494.026l-.419-1.955c-.2.043-.391.039-.584-.01l-.492 1.939zm1.503.024c.473-.105.92-.295 1.337-.558l-1.065-1.692a2.26 2.26 0 01-.709.299l.437 1.952zm1.353-.568a5.944 5.944 0 001.095-.928l-1.465-1.362a3.93 3.93 0 01-.727.617l1.097 1.673zm1.095-.928c.462-.497.826-1.026 1.044-1.59l-1.866-.72c-.1.26-.299.578-.643.948l1.465 1.362zm1.044-1.59c.216-.559.292-1.147.163-1.735l-1.953.429c.03.136.026.322-.076.586l1.866.72zm.166-1.722a2.814 2.814 0 00-.869-1.505l-1.362 1.464c.17.159.243.304.272.444l1.959-.403z" fill="#fff" fill-opacity=".6"/></g><g filter="url(#filter9_d_2_362)"><path d="M37.858 12.917l4.867 12.592-1.525.59-4.867-12.593 1.525-.589zm6.857 1.628l-2.27 5.635-1.295 3.083-.747-1.568.833-2.451 1.627-3.983 1.852-.716zm2.043 9.405l-4.8-3.007.265-1.657 6.322 3.974-1.787.69z" fill="#C7C7C7" shape-rendering="crispEdges"/><path d="M37.858 12.917l.933-.36-.36-.933-.934.36.36.933zm4.867 12.592l.36.933.933-.36-.36-.933-.933.36zm-1.525.59l-.933.36.36.933.933-.36-.36-.933zm-4.867-12.593l-.36-.932-.933.36.36.933.933-.36zm8.382 1.039l.928.373.86-2.136-2.148.83.36.933zm-2.27 5.635l.923.388.003-.007.002-.007-.927-.374zm-1.295 3.083l-.903.43.96 2.014.864-2.056-.921-.388zm-.747-1.568l-.947-.321-.131.385.175.367.903-.43zm.833-2.451l-.926-.378-.011.028-.01.028.947.322zm1.627-3.983l-.361-.933-.402.155-.163.4.925.378zm3.895 8.69l-.53.847.423.266.467-.18-.36-.934zm-4.8-3.008l-.987-.157-.104.653.56.352.532-.848zm.265-1.657l.532-.846-1.281-.806-.239 1.495.988.157zm6.322 3.974l.36.932 1.86-.718-1.688-1.061-.532.847zm-11.62-9.982l4.867 12.592 1.865-.721-4.866-12.592-1.866.72zm5.44 11.298l-1.526.59.721 1.865 1.525-.589-.72-1.866zm-.233 1.162l-4.866-12.592-1.866.72 4.867 12.593 1.865-.72zM36.694 14.44l1.524-.59-.72-1.865-1.526.59.721 1.865zm7.094-.268l-2.27 5.636 1.855.747 2.27-5.636-1.855-.747zm-2.264 5.622l-1.296 3.082 1.843.776 1.297-3.083-1.844-.775zm.528 3.04l-.747-1.568-1.805.86.747 1.568 1.805-.86zm-.703-.816l.834-2.451-1.894-.644-.833 2.452 1.893.643zm.813-2.395l1.626-3.983-1.851-.756-1.627 3.983 1.852.756zm1.061-3.428l1.853-.717-.721-1.865-1.853.716.721 1.866zm4.066 6.909l-4.8-3.007-1.061 1.695 4.8 3.007 1.061-1.695zm-4.343-2.002l.264-1.657-1.975-.315-.264 1.657 1.975.315zm-1.255-.968l6.322 3.973 1.064-1.693-6.322-3.973-1.064 1.693zm6.494 2.194l-1.788.69.721 1.866 1.788-.69-.721-1.866z" fill="#fff" fill-opacity=".6"/></g><g filter="url(#filter10_d_2_362)"><path d="M67.486 7.818l-.208 9.507-1.635-.036.208-9.507 1.635.036zm-1.703-2.56a.982.982 0 01.252-.663c.168-.178.41-.264.727-.257.31.007.545.103.705.288a.94.94 0 01.24.673.919.919 0 01-.268.645c-.168.172-.407.255-.718.248-.316-.007-.555-.1-.715-.28a.957.957 0 01-.223-.655z" fill="#C7C7C7" shape-rendering="crispEdges"/><path d="M67.486 7.818l1 .021.021-1-1-.021-.021 1zm-.208 9.507l-.022 1 1 .022.022-1-1-.022zm-1.635-.036l-1-.022-.021 1 1 .022.022-1zm.208-9.507l.022-1-1-.022-.022 1 1 .022zm.184-3.187l-.727-.687-.006.007-.006.007.74.673zm1.432.031l-.756.654.006.007.005.006.745-.667zm-.028 1.318l-.716-.699.716.699zm-1.433-.031l-.768.64.011.013.012.013.745-.666zm.48 1.883l-.208 9.507 2 .044.207-9.508-2-.043zm.814 8.53l-1.635-.036-.043 2 1.634.035.044-2zm-.657.985l.208-9.507-2-.044-.207 9.507 2 .044zm-.814-8.53l1.635.036.043-2-1.634-.035-.044 2zm.954-3.502a.18.18 0 01.003-.03c0-.003 0-.003 0 0a.066.066 0 01-.01.017l-.001.002-1.48-1.346a1.98 1.98 0 00-.511 1.313l2 .044zm-.02.002a.254.254 0 01-.087.059c-.016.006 0-.004.064-.002l.044-2c-.512-.01-1.06.13-1.476.57l1.454 1.373zm-.023.057c.06.001.07.01.053.003a.247.247 0 01-.082-.061l1.513-1.308c-.392-.454-.928-.623-1.44-.634l-.044 2zm-.018-.045l-.004-.006a.103.103 0 01-.01-.027v.018l2 .043a1.94 1.94 0 00-.496-1.362l-1.49 1.334zm-.014-.015v.004c0-.004.002-.01.005-.018a.11.11 0 01.01-.017c.003-.005.003-.005 0-.002l1.43 1.398c.354-.362.543-.82.554-1.322l-2-.043zm.015-.032a.254.254 0 01.084-.056c.014-.005-.001.004-.064.002l-.044 2c.502.01 1.042-.125 1.456-.55l-1.432-1.396zm.02-.054c-.068-.001-.086-.011-.074-.006a.255.255 0 01.083.06L65.261 6.58c.398.446.937.602 1.438.613l.044-2zm.032.08c-.002-.001-.001 0 0 .003a.074.074 0 01.007.013l.002.007V5.28l-2-.044c-.011.482.138.938.454 1.318l1.537-1.28z" fill="#fff" fill-opacity=".6"/></g><g filter="url(#filter11_d_2_362)"><path d="M88.931 11.717l2.568-1.553-2.141-1.757.891-1.055 2.07 1.927 1.097-2.819 1.232.517-1.272 2.803 2.793.114-.148 1.396-2.797-.307.674 2.867-1.321.332-.52-2.964-2.422 1.662-.704-1.163z" fill="#C7C7C7" shape-rendering="crispEdges"/><path d="M88.931 11.717l-.517-.856-.856.518.518.856.855-.518zm2.568-1.553l.518.856 1.21-.732-1.094-.897-.634.773zm-2.141-1.757l-.764-.645-.654.775.784.643.634-.773zm.891-1.055l.681-.732-.768-.716-.677.803.764.645zm2.07 1.927l-.682.732 1.079 1.004.535-1.374-.932-.362zm1.097-2.819l.387-.922-.946-.397-.373.956.932.363zm1.232.517l.91.414.426-.937-.949-.399-.387.922zM93.376 9.78l-.91-.414-.614 1.352 1.483.06.041-.998zm2.793.114l.994.105.112-1.06-1.065-.044-.041.999zm-.148 1.396l-.109.994.998.11.106-.998-.995-.106zm-2.797-.307l.109-.994-1.407-.154.324 1.377.974-.229zm.674 2.867l.244.97.955-.24-.225-.96-.974.23zm-1.321.332l-.985.172.186 1.06 1.042-.262-.243-.97zm-.52-2.964l.985-.172-.268-1.532-1.282.88.565.824zm-2.422 1.662l-.856.517.548.906.873-.599-.565-.824zm-.186-.307l2.568-1.553-1.035-1.712-2.568 1.553 1.035 1.712zm2.684-3.182l-2.14-1.757-1.27 1.546 2.142 1.757 1.268-1.546zm-2.011-.339l.891-1.055-1.528-1.29-.891 1.055 1.528 1.29zm-.554-.968l2.07 1.927L93 8.546 90.93 6.62l-1.362 1.464zM93.25 9.64l1.097-2.818-1.864-.726-1.097 2.819 1.864.725zm-.222-2.259l1.232.517.774-1.844-1.232-.517-.774 1.844zm.708-.818l-1.271 2.802 1.82.827 1.273-2.802-1.822-.827zm-.402 4.215l2.793.114.082-1.998-2.793-.114-.082 1.998zm1.84-.99l-.148 1.396 1.989.21.147-1.396-1.989-.21zm.955.507l-2.797-.307-.218 1.988 2.797.307.218-1.988zm-3.88.917l.675 2.866 1.947-.458-.675-2.867-1.947.459zm1.405 1.667l-1.322.332.487 1.94 1.322-.332-.487-1.94zm-.093 1.129l-.52-2.963-1.97.345.52 2.963 1.97-.345zm-2.07-3.615l-2.423 1.661 1.131 1.65 2.423-1.662-1.131-1.65zm-1.002 1.968l-.703-1.163-1.711 1.036.703 1.162 1.711-1.035z" fill="#fff" fill-opacity=".6"/></g><g filter="url(#filter12_d_2_362)"><path d="M112.755 22.144l2.975-.391-1.255-2.47 1.24-.608 1.122 2.596 2.137-2.14.92.968-2.29 2.055 2.512 1.227-.696 1.22-2.439-1.405-.534 2.895-1.343-.226.714-2.923-2.886.549-.177-1.347z" fill="#C7C7C7" shape-rendering="crispEdges"/><path d="M112.755 22.144l-.13-.992-.992.13.131.992.991-.13zm2.975-.391l.131.991 1.402-.184-.641-1.26-.892.453zm-1.255-2.47l-.441-.897-.91.447.46.904.891-.453zm1.24-.608l.918-.397-.416-.963-.943.462.441.898zm1.122 2.596l-.918.396.584 1.353 1.042-1.043-.708-.706zm2.137-2.14l.724-.69-.707-.743-.725.726.708.707zm.92.968l.668.744.766-.688-.709-.745-.725.689zm-2.29 2.055l-.668-.744-1.105.992 1.334.651.439-.899zm2.512 1.227l.868.495.529-.926-.959-.468-.438.899zm-.696 1.22l-.5.866.87.5.498-.871-.868-.496zm-2.439-1.405l.499-.867-1.226-.706-.257 1.391.984.181zm-.534 2.895l-.166.986.971.164.179-.968-.984-.181zm-1.343-.226l-.971-.238-.256 1.045 1.061.179.166-.986zm.714-2.923l.972.238.369-1.51-1.527.29.186.982zm-2.886.549l-.991.13.138 1.05 1.04-.198-.187-.982zm-.047-.356l2.976-.39-.261-1.984-2.975.391.26 1.983zm3.737-1.836l-1.256-2.468-1.782.906 1.255 2.469 1.783-.907zm-1.706-1.117l1.24-.61-.882-1.795-1.24.61.882 1.794zm-.119-1.11l1.122 2.596 1.836-.794-1.122-2.596-1.836.794zm2.748 2.905l2.136-2.14-1.415-1.413-2.137 2.14 1.416 1.413zm.704-2.158l.92.969 1.45-1.378-.921-.968-1.449 1.377zm.977-.464l-2.29 2.055 1.336 1.489 2.29-2.056-1.336-1.488zm-2.061 3.698l2.512 1.226.877-1.797-2.511-1.226-.878 1.797zm2.082-.168l-.696 1.22 1.737.99.696-1.219-1.737-.991zm.672.848l-2.439-1.404-.998 1.733 2.438 1.405.999-1.733zm-3.922-.719l-.533 2.896 1.967.363.533-2.896-1.967-.363zm.617 2.091l-1.343-.226-.333 1.972 1.343.227.333-1.973zm-.538.997l.714-2.922-1.943-.475-.714 2.922 1.943.475zm-.444-4.142l-2.886.549.373 1.964 2.886-.548-.373-1.965zm-1.708 1.4l-.177-1.347-1.983.261.177 1.347 1.983-.26z" fill="#fff" fill-opacity=".6"/></g><g filter="url(#filter13_d_2_362)"><path d="M130.575 41.602l2.85.937-.061-2.769 1.382-.01-.115 2.825 2.854-1.002.409 1.271-2.955.86 1.732 2.194-1.156.797-1.589-2.323-1.736 2.378-1.112-.787 1.911-2.323-2.839-.757.425-1.291z" fill="#C7C7C7" shape-rendering="crispEdges"/><path d="M130.575 41.602l.312-.95-.95-.313-.312.95.95.313zm2.85.937l-.312.95 1.343.442-.031-1.414-1 .022zm-.061-2.769l-.008-1-1.014.008.022 1.014 1-.022zm1.382-.01l.999.04.043-1.049-1.05.008.008 1zm-.115 2.825l-.999-.04-.06 1.472 1.39-.489-.331-.943zm2.854-1.002l.951-.307-.314-.977-.969.34.332.944zm.409 1.271l.279.96.988-.287-.315-.98-.952.307zm-2.955.86l-.279-.96-1.425.414.919 1.165.785-.62zm1.732 2.194l.568.823.878-.606-.661-.837-.785.62zm-1.156.797l-.826.564.567.829.827-.57-.568-.823zm-1.589-2.323l.826-.565-.799-1.168-.834 1.143.807.59zm-1.736 2.378l-.578.816.805.57.581-.796-.808-.59zm-1.112-.787l-.773-.635-.683.83.878.622.578-.817zm1.911-2.323l.772.635.987-1.201-1.502-.4-.257.966zm-2.839-.757l-.95-.313-.331 1.006 1.023.273.258-.966zm.112-.342l2.851.938.625-1.9-2.851-.937-.625 1.9zm4.163-.034l-.061-2.769-2 .044.061 2.77 2-.045zm-1.053-1.747l1.382-.01-.016-2-1.382.01.016 2zm.375-1.051l-.115 2.825 1.998.082.115-2.826-1.998-.081zm1.215 3.81l2.854-1.003-.663-1.887-2.853 1.002.662 1.887zm1.571-1.64l.409 1.272 1.904-.613-.41-1.272-1.903.613zm1.082.005l-2.955.86.558 1.92 2.955-.86-.558-1.92zm-3.461 2.44l1.732 2.193 1.57-1.239-1.732-2.194-1.57 1.24zm1.949.75l-1.156.797 1.136 1.647 1.156-.797-1.136-1.647zm.237 1.056l-1.588-2.323-1.651 1.13 1.588 2.322 1.651-1.129zm-3.221-2.348l-1.737 2.378 1.616 1.18 1.736-2.379-1.615-1.179zm-.352 2.152l-1.112-.787-1.155 1.633 1.112.786 1.155-1.632zm-.917.664l1.911-2.323-1.545-1.27-1.911 2.323 1.545 1.27zm1.396-3.925l-2.838-.757-.516 1.933 2.839.757.515-1.933zm-2.146.522l.424-1.291-1.899-.625-.425 1.291 1.9.625z" fill="#fff" fill-opacity=".6"/></g></g><defs><filter id="filter0_d_2_362" x="126.025" y="69.205" width="23.074" height="20.323" filterUnits="userSpaceOnUse" color-interpolation-filters="sRGB"><feFlood flood-opacity="0" result="BackgroundImageFix"/><feColorMatrix in="SourceAlpha" values="0 0 0 0 0 0 0 0 0 0 0 0 0 0 0 0 0 0 127 0" result="hardAlpha"/><feOffset dy="4"/><feGaussianBlur stdDeviation="2"/><feComposite in2="hardAlpha" operator="out"/><feColorMatrix values="0 0 0 0 0 0 0 0 0 0 0 0 0 0 0 0 0 0 0.25 0"/><feBlend in2="BackgroundImageFix" result="effect1_dropShadow_2_362"/><feBlend in="SourceGraphic" in2="effect1_dropShadow_2_362" result="shape"/></filter><filter id="filter1_d_2_362" x="116.444" y="95.196" width="22.979" height="22.671" filterUnits="userSpaceOnUse" color-interpolation-filters="sRGB"><feFlood flood-opacity="0" result="BackgroundImageFix"/><feColorMatrix in="SourceAlpha" values="0 0 0 0 0 0 0 0 0 0 0 0 0 0 0 0 0 0 127 0" result="hardAlpha"/><feOffset dy="4"/><feGaussianBlur stdDeviation="2"/><feComposite in2="hardAlpha" operator="out"/><feColorMatrix values="0 0 0 0 0 0 0 0 0 0 0 0 0 0 0 0 0 0 0.25 0"/><feBlend in2="BackgroundImageFix" result="effect1_dropShadow_2_362"/><feBlend in="SourceGraphic" in2="effect1_dropShadow_2_362" result="shape"/></filter><filter id="filter2_d_2_362" x="96.742" y="113.804" width="20.282" height="23.449" filterUnits="userSpaceOnUse" color-interpolation-filters="sRGB"><feFlood flood-opacity="0" result="BackgroundImageFix"/><feColorMatrix in="SourceAlpha" values="0 0 0 0 0 0 0 0 0 0 0 0 0 0 0 0 0 0 127 0" result="hardAlpha"/><feOffset dy="4"/><feGaussianBlur stdDeviation="2"/><feComposite in2="hardAlpha" operator="out"/><feColorMatrix values="0 0 0 0 0 0 0 0 0 0 0 0 0 0 0 0 0 0 0.25 0"/><feBlend in2="BackgroundImageFix" result="effect1_dropShadow_2_362"/><feBlend in="SourceGraphic" in2="effect1_dropShadow_2_362" result="shape"/></filter><filter id="filter3_d_2_362" x="71.897" y="122.54" width="16.375" height="18.275" filterUnits="userSpaceOnUse" color-interpolation-filters="sRGB"><feFlood flood-opacity="0" result="BackgroundImageFix"/><feColorMatrix in="SourceAlpha" values="0 0 0 0 0 0 0 0 0 0 0 0 0 0 0 0 0 0 127 0" result="hardAlpha"/><feOffset dy="4"/><feGaussianBlur stdDeviation="2"/><feComposite in2="hardAlpha" operator="out"/><feColorMatrix values="0 0 0 0 0 0 0 0 0 0 0 0 0 0 0 0 0 0 0.25 0"/><feBlend in2="BackgroundImageFix" result="effect1_dropShadow_2_362"/><feBlend in="SourceGraphic" in2="effect1_dropShadow_2_362" result="shape"/></filter><filter id="filter4_d_2_362" x="45.98" y="119.384" width="16.431" height="18.719" filterUnits="userSpaceOnUse" color-interpolation-filters="sRGB"><feFlood flood-opacity="0" result="BackgroundImageFix"/><feColorMatrix in="SourceAlpha" values="0 0 0 0 0 0 0 0 0 0 0 0 0 0 0 0 0 0 127 0" result="hardAlpha"/><feOffset dy="4"/><feGaussianBlur stdDeviation="2"/><feComposite in2="hardAlpha" operator="out"/><feColorMatrix values="0 0 0 0 0 0 0 0 0 0 0 0 0 0 0 0 0 0 0.25 0"/><feBlend in2="BackgroundImageFix" result="effect1_dropShadow_2_362"/><feBlend in="SourceGraphic" in2="effect1_dropShadow_2_362" result="shape"/></filter><filter id="filter5_d_2_362" x="21.377" y="103.215" width="23.44" height="22.619" filterUnits="userSpaceOnUse" color-interpolation-filters="sRGB"><feFlood flood-opacity="0" result="BackgroundImageFix"/><feColorMatrix in="SourceAlpha" values="0 0 0 0 0 0 0 0 0 0 0 0 0 0 0 0 0 0 127 0" result="hardAlpha"/><feOffset dy="4"/><feGaussianBlur stdDeviation="2"/><feComposite in2="hardAlpha" operator="out"/><feColorMatrix values="0 0 0 0 0 0 0 0 0 0 0 0 0 0 0 0 0 0 0.25 0"/><feBlend in2="BackgroundImageFix" result="effect1_dropShadow_2_362"/><feBlend in="SourceGraphic" in2="effect1_dropShadow_2_362" result="shape"/></filter><filter id="filter6_d_2_362" x="6.643" y="83.672" width="19.117" height="17.665" filterUnits="userSpaceOnUse" color-interpolation-filters="sRGB"><feFlood flood-opacity="0" result="BackgroundImageFix"/><feColorMatrix in="SourceAlpha" values="0 0 0 0 0 0 0 0 0 0 0 0 0 0 0 0 0 0 127 0" result="hardAlpha"/><feOffset dy="4"/><feGaussianBlur stdDeviation="2"/><feComposite in2="hardAlpha" operator="out"/><feColorMatrix values="0 0 0 0 0 0 0 0 0 0 0 0 0 0 0 0 0 0 0.25 0"/><feBlend in2="BackgroundImageFix" result="effect1_dropShadow_2_362"/><feBlend in="SourceGraphic" in2="effect1_dropShadow_2_362" result="shape"/></filter><filter id="filter7_d_2_362" x="1.86" y="58.839" width="20.982" height="16.417" filterUnits="userSpaceOnUse" color-interpolation-filters="sRGB"><feFlood flood-opacity="0" result="BackgroundImageFix"/><feColorMatrix in="SourceAlpha" values="0 0 0 0 0 0 0 0 0 0 0 0 0 0 0 0 0 0 127 0" result="hardAlpha"/><feOffset dy="4"/><feGaussianBlur stdDeviation="2"/><feComposite in2="hardAlpha" operator="out"/><feColorMatrix values="0 0 0 0 0 0 0 0 0 0 0 0 0 0 0 0 0 0 0.25 0"/><feBlend in2="BackgroundImageFix" result="effect1_dropShadow_2_362"/><feBlend in="SourceGraphic" in2="effect1_dropShadow_2_362" result="shape"/></filter><filter id="filter8_d_2_362" x="9.392" y="30.022" width="23.961" height="23.763" filterUnits="userSpaceOnUse" color-interpolation-filters="sRGB"><feFlood flood-opacity="0" result="BackgroundImageFix"/><feColorMatrix in="SourceAlpha" values="0 0 0 0 0 0 0 0 0 0 0 0 0 0 0 0 0 0 127 0" result="hardAlpha"/><feOffset dy="4"/><feGaussianBlur stdDeviation="2"/><feComposite in2="hardAlpha" operator="out"/><feColorMatrix values="0 0 0 0 0 0 0 0 0 0 0 0 0 0 0 0 0 0 0.25 0"/><feBlend in2="BackgroundImageFix" result="effect1_dropShadow_2_362"/><feBlend in="SourceGraphic" in2="effect1_dropShadow_2_362" result="shape"/></filter><filter id="filter9_d_2_362" x="32.333" y="10.667" width="20.212" height="23.431" filterUnits="userSpaceOnUse" color-interpolation-filters="sRGB"><feFlood flood-opacity="0" result="BackgroundImageFix"/><feColorMatrix in="SourceAlpha" values="0 0 0 0 0 0 0 0 0 0 0 0 0 0 0 0 0 0 127 0" result="hardAlpha"/><feOffset dy="4"/><feGaussianBlur stdDeviation="2"/><feComposite in2="hardAlpha" operator="out"/><feColorMatrix values="0 0 0 0 0 0 0 0 0 0 0 0 0 0 0 0 0 0 0.25 0"/><feBlend in2="BackgroundImageFix" result="effect1_dropShadow_2_362"/><feBlend in="SourceGraphic" in2="effect1_dropShadow_2_362" result="shape"/></filter><filter id="filter10_d_2_362" x="61.52" y="4.317" width="10.208" height="21.012" filterUnits="userSpaceOnUse" color-interpolation-filters="sRGB"><feFlood flood-opacity="0" result="BackgroundImageFix"/><feColorMatrix in="SourceAlpha" values="0 0 0 0 0 0 0 0 0 0 0 0 0 0 0 0 0 0 127 0" result="hardAlpha"/><feOffset dy="4"/><feGaussianBlur stdDeviation="2"/><feComposite in2="hardAlpha" operator="out"/><feColorMatrix values="0 0 0 0 0 0 0 0 0 0 0 0 0 0 0 0 0 0 0.25 0"/><feBlend in2="BackgroundImageFix" result="effect1_dropShadow_2_362"/><feBlend in="SourceGraphic" in2="effect1_dropShadow_2_362" result="shape"/></filter><filter id="filter11_d_2_362" x="83.779" y="5.304" width="17.575" height="17.674" filterUnits="userSpaceOnUse" color-interpolation-filters="sRGB"><feFlood flood-opacity="0" result="BackgroundImageFix"/><feColorMatrix in="SourceAlpha" values="0 0 0 0 0 0 0 0 0 0 0 0 0 0 0 0 0 0 127 0" result="hardAlpha"/><feOffset dy="4"/><feGaussianBlur stdDeviation="2"/><feComposite in2="hardAlpha" operator="out"/><feColorMatrix values="0 0 0 0 0 0 0 0 0 0 0 0 0 0 0 0 0 0 0.25 0"/><feBlend in2="BackgroundImageFix" result="effect1_dropShadow_2_362"/><feBlend in="SourceGraphic" in2="effect1_dropShadow_2_362" result="shape"/></filter><filter id="filter12_d_2_362" x="107.519" y="16.965" width="18.397" height="18.391" filterUnits="userSpaceOnUse" color-interpolation-filters="sRGB"><feFlood flood-opacity="0" result="BackgroundImageFix"/><feColorMatrix in="SourceAlpha" values="0 0 0 0 0 0 0 0 0 0 0 0 0 0 0 0 0 0 127 0" result="hardAlpha"/><feOffset dy="4"/><feGaussianBlur stdDeviation="2"/><feComposite in2="hardAlpha" operator="out"/><feColorMatrix values="0 0 0 0 0 0 0 0 0 0 0 0 0 0 0 0 0 0 0.25 0"/><feBlend in2="BackgroundImageFix" result="effect1_dropShadow_2_362"/><feBlend in="SourceGraphic" in2="effect1_dropShadow_2_362" result="shape"/></filter><filter id="filter13_d_2_362" x="125.483" y="38.738" width="17.312" height="17.193" filterUnits="userSpaceOnUse" color-interpolation-filters="sRGB"><feFlood flood-opacity="0" result="BackgroundImageFix"/><feColorMatrix in="SourceAlpha" values="0 0 0 0 0 0 0 0 0 0 0 0 0 0 0 0 0 0 127 0" result="hardAlpha"/><feOffset dy="4"/><feGaussianBlur stdDeviation="2"/><feComposite in2="hardAlpha" operator="out"/><feColorMatrix values="0 0 0 0 0 0 0 0 0 0 0 0 0 0 0 0 0 0 0.25 0"/><feBlend in2="BackgroundImageFix" result="effect1_dropShadow_2_362"/><feBlend in="SourceGraphic" in2="effect1_dropShadow_2_362" result="shape"/></filter></defs></svg>