<svg width="38" height="39" viewBox="0 0 41 31" fill="none" xmlns="http://www.w3.org/2000/svg"><path d="M40.198.538A1.436 1.436 0 0038.58.09L1.887 13.54a2.078 2.078 0 00-1.343 1.71 2.08 2.08 0 00.881 1.976l5.245 3.631a1.63 1.63 0 001.706.099l11.377-6.086-8.867 6.716a1.695 1.695 0 00-.665 1.345v6.221c0 .642.347 1.23.905 1.535a1.7 1.7 0 001.767-.08l3.984-2.682 3.919 2.71a2.045 2.045 0 001.582.321 2.086 2.086 0 001.336-.946l16.6-27.767a1.49 1.49 0 00-.116-1.705zM21.873 28.502l-4.058-2.807a1.634 1.634 0 00-1.847-.012l-3.402 2.289v-4.69l15.657-11.859c.7-.53.875-1.493.41-2.242a1.63 1.63 0 00-2.172-.588L7.65 18.655l-4.436-3.072L37.002 3.198 21.873 28.502z" fill="#fff"/></svg>