<svg width="33" height="33" viewBox="0 0 41 40" fill="none" xmlns="http://www.w3.org/2000/svg"><path d="M34.443 5.692A19.042 19.042 0 0020.888.077h-.002c-2.532 0-5 .49-7.335 1.458a19.074 19.074 0 00-6.218 4.157A19.043 19.043 0 001.72 19.246c0 3.054.737 6.088 2.133 8.792L.63 37.243a1.761 1.761 0 00.42 1.841 1.76 1.76 0 001.842.42l9.205-3.221a19.225 19.225 0 008.791 2.132c5.12 0 9.934-1.994 13.555-5.614a19.043 19.043 0 005.614-13.555c0-5.12-1.994-9.934-5.614-13.554zm-1.64 25.47a16.74 16.74 0 01-11.915 4.935 16.89 16.89 0 01-7.91-1.97 1.785 1.785 0 00-1.424-.11L3.19 36.943l2.927-8.362a1.786 1.786 0 00-.11-1.425 16.893 16.893 0 01-1.97-7.91c0-4.5 1.752-8.732 4.935-11.915a16.742 16.742 0 0111.914-4.936h.001c4.501 0 8.733 1.753 11.915 4.936a16.74 16.74 0 014.936 11.915 16.74 16.74 0 01-4.936 11.916z" fill="#fff"/><path d="M28.012 20.959a2.264 2.264 0 00-3.198 0l-.965.964a14.038 14.038 0 01-5.638-5.638l.965-.964a2.264 2.264 0 000-3.199l-2.6-2.599a2.264 2.264 0 00-3.198 0l-2.079 2.08c-1.19 1.19-1.25 3.238-.167 5.765.94 2.194 2.66 4.605 4.845 6.79 2.184 2.184 4.596 3.904 6.79 4.845 1.2.514 2.293.77 3.236.77 1.043 0 1.904-.312 2.53-.938l2.078-2.079c.428-.427.663-.995.663-1.599s-.235-1.172-.663-1.6l-2.599-2.598zm-1.12 6.237c-.34.34-1.384.459-3.212-.324-1.93-.827-4.083-2.373-6.064-4.354-1.98-1.98-3.526-4.134-4.353-6.064-.784-1.827-.664-2.873-.325-3.212l2.04-2.04 2.519 2.52-1.208 1.207a1.77 1.77 0 00-.327 2.06 16.355 16.355 0 007.183 7.184 1.77 1.77 0 002.06-.328l1.208-1.207 2.52 2.52-2.04 2.038z" fill="#fff"/></svg>