<svg width="587" height="596" fill="none" xmlns="http://www.w3.org/2000/svg"><g clip-path="url(#clip0_32_114)"><path fill-rule="evenodd" clip-rule="evenodd" d="M332.753 83.423c7.639 5.489 8.991 10.79 6.447 25.307l-.534 3.043 4.817 2.019c2.65 1.111 6.213 2.036 7.919 2.056 2.269.028 6.783 1.646 16.816 6.03 13.429 5.869 13.77 6.069 16.341 9.625 1.821 2.519 3.289 6.663 4.795 13.537 1.335 6.093 2.876 10.641 4.001 11.814 1.303 1.356 1.838 3.395 1.85 7.044.009 2.825.645 7.024 1.413 9.332.769 2.308 1.654 5.904 1.97 7.992.315 2.087 1.37 6.435 2.344 9.662.975 3.227 1.49 6.512 1.146 7.301-.345.788-.53 2.207-.41 3.153.12.947-.117 4.734-.527 8.417-.719 6.467-.802 6.693-2.461 6.617-1.305-.059-2.071.726-3.199 3.283-2.4 5.441-7.526 11.654-15.804 19.153-4.266 3.863-8.039 7.675-8.386 8.468-.346.792-1.971 2.107-3.609 2.921-1.64.813-3.316 2.247-3.726 3.185-.922 2.109-2.743 3.579-8.762 7.065l-4.693 2.719.428 4.137c.236 2.275.195 5.694-.091 7.594l-.523 3.456 17.022 7.424c13.565 5.917 17.848 7.483 21.096 7.711 5.196.366 8.565 1.83 15.034 6.534a553.975 553.975 0 0011.191 7.873c6.886 4.703 8.464 6.599 7.44 8.941-.786 1.8-5.715 5.242-10.375 7.245l-2.897 1.245 9.179 11.048c7.927 9.54 9.15 11.424 8.965 13.81l-.214 2.764 10.767 4.705c9.787 4.277 10.986 4.625 13.189 3.837 1.853-.664 4.61-.235 11.741 1.827 5.126 1.482 10.193 2.623 11.261 2.538 2.116-.172 11.653 4.843 11.197 5.887-.708 1.62-4.552 5.228-5.984 5.616-2.569.698-.045 2.6 4.822 3.634 3.763.8 4.06 1.008 3.807 2.678-.484 3.187-.988 3.636-3.84 3.421l-2.794-.212.421 3.245c2.418 18.603 3.183 25.86 3.98 37.765.918 13.696.899 13.923-1.518 17.993-2.773 4.67-1.41 4.403-18.909 3.686l-8.716-.358-3.062-3.967c-2.289-2.968-4.081-7.479-7.11-17.891-2.228-7.657-5.698-18.015-7.714-23.018l-3.664-9.095 2.677-3.72c1.473-2.047 2.588-3.953 2.477-4.236-.11-.282-3.839-1.305-8.287-2.272-4.448-.967-8.805-2.057-9.683-2.424-.877-.367-3.438-.14-5.69.505l-4.094 1.172 1.235 2.213c.726 1.301 2.015 2.347 3.128 2.535 1.494.252 1.933.996 2.086 3.532.236 3.899.556 4.421 4.12 6.708 2.182 1.403 2.722 2.275 2.442 3.94-.281 1.668.293 2.587 2.618 4.192 2.392 1.652 2.979 2.635 2.987 5.014.011 2.984 1.257 4.55 4.913 6.171 2.438 1.08 3.294 3.035 2.314 5.278-.782 1.789.352 5.261 1.946 5.958.524.229 1.439 1.663 2.034 3.187.865 2.218.731 3.57-.675 6.787-.965 2.209-1.689 4.864-1.609 5.898.119 1.507-.507 2.227-3.15 3.626-1.815.961-3.666 2.335-4.115 3.057-2.583 4.144-3.097 4.381-6.933 3.197-2.115-.653-4.816-.801-6.165-.34-3.832 1.312-8.648 1.296-12.195-.041-2.358-.889-3.521-.896-4.119-.024-.584.849-1.618.872-3.44.076-1.433-.626-4.525-.928-6.871-.673-4.971.542-6.965-.118-8.116-2.684-.708-1.577-1.297-1.883-3.963-2.054-2.804-.179-3.351-.517-5.218-3.223l-2.085-3.024-2.496 1.343c-2.84 1.529-5.363.825-5.596-1.563-.135-1.389-.77-1.755-4.47-2.567-3.301-.726-4.449-1.289-4.897-2.405-.455-1.139-1.378-1.577-4.197-1.996-3.228-.48-3.766-.821-5.032-3.189l-1.417-2.653-3.156.454c-2.852.41-3.318.253-4.844-1.638-1.194-1.479-2.211-2.048-3.472-1.947-2.981.241-7.461-2.098-6.822-3.561.326-.748.039-1.286-.705-1.319-.691-.032-2.949-.511-5.018-1.068-3.163-.851-3.829-1.33-4.174-3.005-.588-2.86-3.96-4.992-5.267-3.331-1.408 1.787-4.521.293-4.16-1.995.259-1.631-.136-1.911-4.678-3.31-3.995-1.232-5.03-1.843-5.317-3.142-.524-2.366-2.032-3.104-5.751-2.815l-3.313.257-.941-3.339c-1.022-3.627-4.798-6.261-5.773-4.029-.82 1.876-4.64-.219-4.302-2.358.373-2.353-2.259-4.251-5.627-4.058-3.259.187-4.626-.858-3.75-2.864 1.12-2.562-3.344-7.798-5.042-5.913-.921 1.025-4.367-.003-4.578-1.365-.1-.656.095-1.845.434-2.641.696-1.629-2.993-6.147-4.287-5.25-2.22 1.541-4.718-2.303-3.129-4.815.288-.454-.157-1.869-.989-3.146-1.207-1.853-2.019-2.344-4.043-2.446-2.862-.143-4.145-2.318-2.409-4.082 1.377-1.399-1.222-5.117-3.888-5.562-3.268-.545-4.483-2.203-3.012-4.111 1.692-2.193-.082-4.546-3.554-4.712-2.658-.126-5.968-2.555-8.888-6.521-1.397-1.897-1.876-2.106-4.705-2.05-16.136.323-25.086-1.851-50.498-12.267-17.467-7.159-38.07-17.202-42.802-20.864-1.729-1.339-7.963.447-16.582 4.752-8.193 4.092-6.986 7.844 4.815 14.966 3.453 2.084 7.9 4.883 9.881 6.221 1.983 1.337 7.574 4.19 12.425 6.34 8.24 3.653 9.182 3.888 14.359 3.595 5.692-.323 7.759.718 6.123 3.082-1.649 2.382-8.912 2.024-18.136-.894-12.216-3.865-19.361-5.94-25.675-7.459-3.696-.89-10.541-3.728-20.941-8.683-13.501-6.432-15.991-7.875-19.738-11.435-2.439-2.32-6.904-5.444-10.365-7.253-7.986-4.176-12.358-8.298-25.654-24.19-10.61-12.683-11.225-13.633-14.858-22.984-3.751-9.657-5.976-22.658-4.466-26.111 2.011-4.603 23.989-.223 27.749 5.53 1.666 2.548 1.927 6.154 1.29 17.843-.401 7.36-.304 7.745 3.904 15.551 2.374 4.403 4.733 9.424 5.243 11.159.924 3.141 3.541 6.139 10.014 11.467 4.388 3.613 19.63 10.728 23.29 10.872 1.514.06 3.846.325 5.183.591l2.428.48 2.304-5.971c1.658-4.298 2.63-5.955 3.47-5.916.734.034 1.297-.73 1.522-2.064.195-1.166 1.004-2.63 1.796-3.255 1.328-1.05.901-1.505-5.511-5.895-3.825-2.617-8.223-5.491-9.775-6.388-7.477-4.315-20.342-18.242-27.464-29.732-4.032-6.506-10.236-21.943-12.303-30.617-.88-3.691-.925-6.525-.147-9.27.714-2.516.738-4.516.066-5.498-1.358-1.988.428-6.207 2.991-7.066 2.973-.996 12.953 1.23 20.711 4.62l7.034 3.074 1.862 4.325c1.301 3.021 2.077 8.507 2.577 18.211l.714 13.886 5.738 10.207c3.156 5.613 5.615 10.796 5.466 11.516-.149.721.225 1.526.83 1.791.606.264 3.771 2.938 7.036 5.942 3.979 3.661 7.093 5.87 9.449 6.704l3.515 1.243 3.465-4.337c1.906-2.386 3.251-4.495 2.992-4.687-.262-.193-2.104-1.109-4.095-2.034-3.227-1.502-4.479-3.041-11.563-14.194-12.449-19.603-15.838-27.407-13.865-31.925.853-1.95.18-3.075-2.908-4.866-3.926-2.274-4.162-2.824-2.524-5.877 2.253-4.2 4.763-5.954 9.167-6.401 2.163-.221 4.124-.838 4.357-1.373.234-.534 2.33-1.05 4.659-1.147 2.328-.097 5.289-.888 6.58-1.758 1.289-.871 2.974-1.675 3.743-1.787.769-.113 4.783-1.372 8.92-2.799 6.986-2.408 29.511-5.972 40.24-6.367 4.159-.154 4.444-.306 3.858-2.06-.579-1.737-.242-2.157 4.039-5.029 6.543-4.392 17.814-10.829 20.104-11.483 1.056-.302 5.038-2.345 8.848-4.543 10.272-5.924 13.742-6.839 23.856-6.292 5.798.313 17.718 2.171 18.174 2.832.263.381-.189 1.924-1.005 3.428-1.374 2.527-1.312 2.878.809 4.635 1.405 1.166 2.505 3.195 2.836 5.241.638 3.919.89 4.099 4.579 3.266 1.545-.349 4.051-.359 5.573-.023 2.533.559 2.694.779 1.902 2.59-.861 1.97 0 3.528 2.518 4.558.726.297 5.26-.829 10.074-2.503 8.386-2.915 8.803-3.179 9.955-6.304.971-2.634 1.542-3.228 2.962-3.08 1.607.168 3.022-2.198 2.348-3.927-.119-.303 1.149-1.311 2.816-2.241 2.075-1.157 3.475-2.703 4.434-4.897.993-2.274 2.268-3.636 4.38-4.686 1.64-.813 3.346-2.311 3.792-3.329.447-1.018 2.01-2.692 3.473-3.721 2.169-1.524 2.683-2.337 2.776-4.404.065-1.413 1.076-4.131 2.289-6.149 1.978-3.292 2.022-3.616.49-3.613-.925.002-3.073-.418-4.771-.932-2.859-.865-3.316-.689-6.173 2.38-3.017 3.241-3.141 3.279-5.58 1.709-3.25-2.093-6.023-7.512-6.53-12.766-.331-3.437-.157-4.22.966-4.345 5.068-.566 5.087-.623 2.802-8.08-1.184-3.866-2.665-7.405-3.292-7.867-.626-.462-1.205-1.277-1.285-1.81-.085-.563-2.611-.832-5.995-.639-3.216.182-6.08.23-6.365.105-.285-.124.274-1.531 1.24-3.127 2.457-4.051 15.769-13.488 24.133-17.106 11.745-5.08 20.55-4.436 29.751 2.173zm-23.031 21.575c.788 1.889.818 1.877.687-.271-.075-1.234-.445-2.124-.823-1.975-.378.148-.317 1.159.136 2.246zm-8.287-3.391c-2.089.129-3.938.553-4.11.946-.171.392-1.072 1.013-1.999 1.378-1.499.59-1.549 1.022-.444 3.854 1.096 2.809 1.732 3.365 5.332 4.656l4.087 1.466 2.571-3.151c2.531-3.103 2.548-3.195 1.083-5.992-1.807-3.449-1.798-3.445-6.52-3.157zm3.108 15.089c.19.489 5.39-4.453 5.707-5.424.108-.329-1.172.657-2.843 2.191-1.671 1.532-2.961 2.988-2.864 3.233zm43.909 19.346c-.104.988 1.047 3.486 2.559 5.552 1.513 2.066 2.831 4.413 2.93 5.217.658 5.351 5.871 15.665 6.82 13.492a.88.88 0 00-.448-1.156c-1.263-.552-5.039-9.782-5.231-12.786-.194-3.028-.282-3.001 5.522-1.719l3.405.752-2.547-1.457c-1.697-.97-3.445-1.243-5.243-.816l-2.696.64-2.33-3.747c-1.281-2.061-2.08-4.32-1.774-5.02.306-.7.257-1.153-.11-1.01-.367.144-.752 1.07-.857 2.058zm-11.262 6.263c.363 1.087 1.806 3.462 3.205 5.279 3.026 3.927 2.663 2.542-.779-2.97-2.866-4.59-3.336-5.037-2.426-2.309zm53.427 28.391c.039 2.236.376 3.448.749 2.693.936-1.892.886-8.505-.057-7.539-.42.43-.732 2.61-.692 4.846zm-22.163-7.603c-3.651-.054-5.75 1.355-7.404 4.974l-1.183 2.587.066-4.183c.035-2.302-.201-3.627-.528-2.945-1 2.087-1.076 6.746-.126 7.685.753.743.535 1.193-1.346 2.768-1.235 1.035-3.083 1.948-4.107 2.031-1.023.083-2.217.966-2.653 1.962-.507 1.159-1.62 1.826-3.097 1.849-2.298.039-7.219 3.301-6.759 4.48.132.341.772.054 1.419-.637 1.659-1.773 5.701-3.494 6.937-2.954.622.272 1.436-.455 2.029-1.812 1.454-3.328 4.697-2.682 4.42.879-.19 2.446 1.167 4.874 2.441 4.373.325-.128.161-.421-.363-.65-1.329-.581-1.088-6.861.332-8.703.987-1.279 1.76-1.27 4.944.058 4.589 1.912 9.474 3.224 13.446 3.608 5.05.489 2.868-.723-3.096-1.72-3.108-.52-7.315-1.801-9.346-2.848-3.635-1.873-3.677-1.949-2.7-4.817 1.213-3.558 4.358-5.414 8.706-5.135 1.686.107 2.626-.029 2.088-.303-.538-.274-2.393-.52-4.12-.547zm-23.048-8.234c-.072.162.275 1.052.77 1.975.816 1.52.855 1.504.426-.167-.452-1.758-.914-2.455-1.196-1.808zm42.382 26.521c-2.457 6.312-2.488 6.349-6.021 7.434-5.755 1.769-16.204 5.524-21.857 7.856-2.89 1.194-7.061 2.458-9.268 2.81-2.208.351-3.279.717-2.38.813.899.096 1.985.328 2.412.514.43.188 4.207-1.006 8.396-2.65 4.19-1.644 11.964-4.518 17.276-6.386 10.539-3.704 11.943-4.966 13.998-12.584 1.604-5.944.115-4.666-2.556 2.193zm-40.443-21.346c.077.548.739 1.252 1.471 1.564 1.147.489 1.214.39.488-.708-1.1-1.666-2.138-2.12-1.959-.856zm-36.504-11.506c-.449 1.046 2.534 8.831 3.555 9.277.544.238.125-1.841-.928-4.618-1.995-5.258-2.207-5.635-2.627-4.659zm-5.159 12.614c1.268 2.838 2.613 5.038 2.99 4.889.377-.149.154-.968-.496-1.82-.65-.852-1.762-3.105-2.472-5.006-.709-1.9-1.523-3.402-1.807-3.338-.285.064.519 2.438 1.785 5.275zm18.834 10.394l-2.57 4.441-4.508-1.332c-4.367-1.29-4.52-1.26-4.88.963-.822 5.076-1.473 6.049-4.466 6.681-1.621.342-3.21 1.227-3.534 1.967-.323.738-1.48 1.889-2.571 2.556-2.42 1.482-2.323 1.529 3.496 1.737 2.564.09 6.081.784 7.814 1.542 4.554 1.99 10.798 2.856 11.357 1.575.261-.596 1.191-.772 2.066-.39.877.383 2.008.274 2.514-.24.507-.516 2.221-.862 3.808-.771 1.588.091 2.521-.198 2.073-.642-.624-.62-.372-1.075 1.096-1.975 2.669-1.631 2.916-2.657 1.13-4.653-.851-.95-1.805-3.331-2.122-5.29-.567-3.517-4.216-8.896-6.803-10.028-1.045-.457-1.884.373-3.9 3.859zm-25.995-3.335c.796 2.143 1.896 4.091 2.441 4.329.545.239.114-1.602-.957-4.09-2.366-5.493-3.509-5.677-1.484-.239zm7.806 1.327c-.054.125.977 2.329 2.293 4.9l2.391 4.672-1.667-4.626c-1.412-3.917-2.609-5.879-3.017-4.946zm34.817 31.393c-.094.217.699.323 1.764.237 1.064-.086 2.012-.333 2.107-.549.094-.216-.699-.323-1.764-.237-1.064.087-2.012.333-2.107.549zm-108.282-37.815c-3.068.223-7.133.248-9.035.053-3.312-.337-3.499-.483-4.421-3.456l-.963-3.105.324 2.684c.385 3.168-.041 4.461-1.289 3.916-1.224-.535-13.488.72-13.241 1.355.245.629 4.475.652 9.037.049 1.907-.252 7.396-.32 12.2-.153 6.623.231 10.02-.183 14.051-1.714 2.925-1.111 5.443-2.311 5.599-2.667.155-.356-1.286.092-3.202.992-1.915.902-5.994 1.823-9.06 2.046zm101.31 40.51c-2.334.887-4.432 2.046-4.664 2.575-.231.529.199 2.12.955 3.536 1.18 2.207 1.152 2.653-.197 3.123-1.998.696-8.929.414-10.889-.442-.82-.359-2.18-2.052-3.023-3.761-1.243-2.522-1.828-3.023-3.102-2.653-.864.249-1.511.877-1.438 1.395.261 1.839-2.405 4.205-4.368 3.877-1.089-.181-5.075-2.277-8.856-4.656-4.123-2.594-7.507-4.273-8.454-4.197-1.27.103-5.559 3.729-11.334 9.583-.355.359.548 2.001 2.009 3.647 4.482 5.055 8.051 10.937 7.46 12.292-.392.894.327 1.86 2.355 3.162 2.358 1.514 3.084 2.705 3.789 6.222 1.341 6.677 3.288 12.368 4.187 12.239 1.225-.176 6.818-5.399 8.626-8.056.878-1.289 2.274-2.681 3.103-3.09.828-.411 2.649-2.143 4.047-3.849 1.398-1.706 3.253-3.455 4.125-3.888.87-.432 1.921-1.561 2.334-2.508.996-2.279 8.655-11.851 11.113-13.891 1.069-.886 3.369-3.214 5.113-5.174 2.512-2.824 3.077-3.889 2.721-5.13-.621-2.164-.817-2.177-5.612-.356zm-16.651-7.155c-.379.264-.176.704.452.979.627.274 1.269.203 1.427-.158.157-.36-.045-.799-.451-.977-.406-.177-1.048-.107-1.428.156zm-6.894-3.131c.888.61 2.474 1.304 3.527 1.541 1.052.236.325-.264-1.615-1.112-1.939-.847-2.801-1.042-1.912-.429zm-7.951-2.631c-.075.17.591.626 1.478 1.014.888.387 1.554.276 1.479-.249-.121-.862-2.631-1.511-2.957-.765zm-72.656-22.766c-6.354-.732-12.888-1.161-14.518-.955-1.63.207-7.312.888-12.625 1.514-5.314.625-9.567 1.383-9.451 1.682.221.565 3.524.305 16.097-1.261 4.072-.507 9.27-.868 11.552-.802 4.758.14 15.454 1.446 15.635 1.91.067.172-1.387.438-3.231.592-1.844.153-3.487.587-3.651.961-.333.763 3.768.648 10.157-.285 4.198-.613 6.324-1.935 3.207-1.996-.891-.017-6.818-.629-13.172-1.36zm75.009 30.198c-2.257-.239-3.292-.083-2.364.357.908.432 3.063.787 4.789.789 4.021.005 2.748-.596-2.425-1.146zm-57.039-20.28c-.5.508-.826 2.155-.726 3.662.207 3.11 2.403 8.742 2.934 7.525.193-.44-.075-1.75-.596-2.908-1.304-2.909-.964-3.243 2.863-2.811 7.567.853 8.116-1.286 1.115-4.346-3.306-1.444-4.949-1.773-5.59-1.122zm82.475 52.508c-5.571 11.874-4.879 11.521 1.976-1.009 2.841-5.194 5.647-10.077 6.235-10.85.611-.803.057-.644-1.293.371-1.786 1.343-3.475 4.147-6.918 11.488zm-77.158-48.174c-2.78.042-5.144.038-5.254-.01-.111-.047.017-1.045.284-2.216.475-2.086.578-2.087 5.254.01l4.77 2.138-5.054.078zm8.112 2.789c-.474 1.816-1.385 2.342-3.744 2.163-1.443-.11-3.595.635-4.831 1.67-2.017 1.69-2.154 2.028-1.436 3.563 1.587 3.397 5.805 7.689 9.162 9.322 6.194 3.012 6.903 3.116 9.095 1.333 2.09-1.698 2.087-1.72-.225-2.351-1.283-.349-3.193-1.697-4.244-2.994-1.703-2.105-2.015-2.251-2.898-1.354-1.282 1.303-2.85.586-3.474-1.587-.417-1.458-.211-1.785 1.348-2.135 1.633-.366 1.892-.826 2.286-4.049.245-1.999.148-3.765-.214-3.922-.363-.159-.734-.006-.825.341zm-43.285-13.443c-3.375 1.407-6.644 3.137-7.264 3.847-.621.71-1.739 1.072-2.486.806-1.134-.405-1.145-.319-.072.523 1.118.876.832 1.142-2.175 2.023-2.715.796-3.508 1.441-3.672 2.99-.26 2.456 1.174 3.106 10.132 4.592 3.8.631 11.276 2.619 16.612 4.417 9.55 3.219 12.83 4.885 7.27 3.693-1.559-.335-6.972-1.233-12.029-1.997a2584.2 2584.2 0 01-16.84-2.606c-4.205-.671-7.546-.966-7.426-.655.229.584 18.66 3.569 34.019 5.506 4.866.614 10.208 1.364 11.872 1.669 4.295.784 2.335-.076-10.966-4.808-6.442-2.294-15.388-4.891-19.88-5.773l-10.098-1.987c-3.104-.615-1.19-3.485 2.709-4.064 1.784-.265 7.346-2.178 12.359-4.252s7.558-3.255 5.655-2.625c-2.112.701-3.735.745-4.17.114-.511-.741.162-1.27 2.374-1.869 2.479-.672 2.804-.959 1.649-1.468-.79-.348-4.198.518-7.573 1.924zm2.18 1.957c-.049 1.067-1.348 1.913-4.285 2.794-2.315.696-4.481 1.154-4.811 1.018-.329-.137 1.321-1.509 3.666-3.049 4.59-3.014 5.541-3.148 5.43-.763zm-24.485.063c-.691.246.309.763 2.666 1.376 6.414 1.669 8.636 1.556 3.342-.17-2.696-.881-5.4-1.423-6.008-1.206zm-8.648 3.177c-3.135 1.769-6.901 3.421-8.37 3.672-3.322.569-3.145 1.505.274 1.448 1.985-.033 2.782.309 3.637 1.562.603.883 1.245 1.266 1.426.852.182-.414-.107-1.332-.643-2.04-.844-1.117-.2-1.748 4.903-4.81 3.231-1.938 6.002-3.816 6.157-4.172.355-.813-.355-.476-7.384 3.488zm47.73 21.84c-.247.075.507.554 1.674 1.065 1.168.51 2.574 1.974 3.127 3.254.553 1.281 2.275 3.302 3.83 4.495 1.554 1.193 5.77 4.754 9.369 7.914 6.999 6.144 8.533 6.833 18.573 8.334 6.553.979 7.344 1.033 7.132.487-.102-.26-3.47-1.1-7.485-1.868-9.958-1.906-11.473-2.679-20.502-10.466-10.182-8.781-10.877-9.52-10.263-10.924.394-.903-.129-1.321-2.246-1.802-1.518-.345-2.962-.565-3.209-.489zm-4.45-.675c-1.837.302-.6.842 1.96.856 1.229.005 1.469-.18.706-.548-.637-.307-1.836-.445-2.666-.308zm-11.552-2.17c-5.418-.692-18.586-.751-32.966-.15-4.783.201-4.512.756 2.688 5.5 3.079 2.028 5.174 3.942 5.139 4.695-.067 1.432-1.144 1.222-13.23-2.57-21.692-6.807-20.938-6.663-33.865-6.444-3.207.056-9.764-.033-14.57-.196-9.532-.325-13.987-.028-14.419.959-.153.35.93.557 2.407.457 1.478-.097 10.646-.168 20.37-.157 15.831.018 18.552.276 25.955 2.456 4.547 1.34 12.569 3.649 17.825 5.131 5.256 1.483 9.646 2.731 9.755 2.775.11.044.512-.636.893-1.51.815-1.867-.659-3.553-6.224-7.115l-4.012-2.567 6.162-.219c11.466-.405 17.393-.357 26.974.218 10.452.627 11.008.001 1.118-1.263zm-39.662-6.652c-9.331.792-22.078 1.847-28.327 2.345-6.249.497-11.474 1.158-11.609 1.468-.249.573 7.893.083 23.006-1.381 14.738-1.429 29.445-2.525 33.268-2.479 2.35.027 3.156-.222 2.178-.674-.854-.396-9.187-.07-18.516.721zm142.543 61.135c-.019.636.352.271.824-.81.473-1.081.488-1.6.035-1.154-.455.444-.842 1.329-.859 1.964zm18.686 15.187c-1.739 6.359-2.85 12.262-2.263 12.031.631-.248 4.217-15.623 3.697-15.851-.191-.083-.836 1.635-1.434 3.82zm-22.066-5.048c-.362 1.563-.345 2.978.038 3.145.393.173.858-.932 1.077-2.565.212-1.577.798-3.955 1.3-5.282l.916-2.415-1.337 2.137c-.736 1.176-1.633 3.417-1.994 4.98zm19.529 5.344c-.063 1.131-.605 3.948-1.203 6.261-.598 2.313-.676 3.651-.171 2.973 1.282-1.723 3.059-10.604 2.199-10.981-.408-.177-.758.565-.825 1.747zm-106.718-44.971c-3.622-1.109-11.801-4.019-18.175-6.466-6.374-2.448-12.249-4.384-13.054-4.304-1.077.107-.903.398.654 1.1 1.164.524 4.826 4.161 8.135 8.081 7.241 8.575 8.22 9.566 8.595 8.709.159-.365-2.369-3.647-5.619-7.295-3.249-3.649-5.664-6.802-5.366-7.009.297-.206 4.259 1 8.802 2.68 4.543 1.681 12.561 4.456 17.818 6.168 5.257 1.712 10.067 3.476 10.689 3.919.623.444-4.679 1.136-11.782 1.537l-12.914.729-1.42 4.241c-3.122 9.327-6.231 19.951-5.998 20.495.326.762 5.366-13.681 5.826-16.696.196-1.292.978-3.41 1.735-4.71 1.297-2.225 2.147-2.4 14.715-3.029 7.335-.368 13.919-.963 14.629-1.322 1.387-.7-3.266-2.54-17.27-6.828zm85.967 47.839c-.305 2.03-.362 3.614-.124 3.521.237-.094.709-1.842 1.047-3.884.338-2.042.394-3.626.124-3.52-.269.105-.74 1.853-1.047 3.883zm48.088 23.861c-15.017-.756-15.362-.723-15.729 1.457-.206 1.226-.293 2.44-.191 2.699.1.258 4.236 1.528 9.19 2.823s12.952 3.42 17.774 4.721c12.696 3.429 17.125 4.235 10.374 1.89-2.896-1.007-7.175-2.267-9.509-2.802-2.333-.534-8.185-2.043-13.003-3.353-4.817-1.31-9.94-2.684-11.383-3.056-2.08-.536-2.569-1.022-2.36-2.342.27-1.701-.128-1.701 28.518-.063 1.388.079 2.911-.124 3.384-.453.495-.344.315-.63-.426-.673-.707-.042-8.195-.424-16.639-.848zm-17.073-10.654c-.038.822-.972 4.944-2.075 9.157-1.103 4.214-3.563 14.142-5.469 22.062a4617.816 4617.816 0 01-4.873 20.105c-.777 3.136-1.164 5.811-.86 5.944.599.262 1.673-3.573 5.257-18.767.66-2.801 1.407-5.844 1.659-6.764.254-.919 1.844-7.386 3.537-14.37 1.69-6.984 3.378-13.935 3.749-15.446.372-1.512.331-2.898-.089-3.082-.422-.184-.797.338-.836 1.161zm-13.385-1.056c-.595 2.186-1.081 4.816-1.08 5.847.002 1.864 1.206-1.717 2.402-7.142.871-3.951-.168-2.932-1.322 1.295zm76.2 31.582a956.979 956.979 0 01-11.661-3.13c-5.874-1.622-8.798-1.988-5.95-.743 3.613 1.579 25.175 7.066 26.175 6.662.796-.322.491-.61-.98-.922-1.174-.249-4.587-1.09-7.584-1.867zm-74.8-27.482c-1.115 5.287-.593 6.891.63 1.936 1.575-6.382 1.862-8.288 1.123-7.488-.415.45-1.204 2.949-1.753 5.552zm-20.875-3.483c-.624 4.124-.933 7.419-.688 7.323.245-.097.97-3.556 1.61-7.685.64-4.131.95-7.426.688-7.324-.261.104-.987 3.562-1.61 7.686zm-130.678-59.798c-3.617 1.815-7.966 4.078-9.663 5.026-1.698.948-6.515 3.454-10.704 5.57-4.19 2.115-7.522 4.091-7.406 4.39.118.301 4.993-1.86 10.835-4.8 23.283-11.718 23.216-11.69 26.189-11.006 1.559.358 3.119 1.062 3.466 1.565.346.502 1.218 12.509 1.936 26.684.719 14.174 1.604 25.9 1.966 26.058.363.159.015-11.784-.772-26.538l-1.432-26.828-3.919-1.711c-3.871-1.69-4.001-1.672-10.496 1.59zm-29.405-16.008c-.045.109-.775 7.057-1.622 15.441-.848 8.383-1.694 15.604-1.881 16.046-.39.914-7.824-2.518-20.617-9.516-4.58-2.505-10.64-5.564-13.466-6.8-2.826-1.235-6.678-3.186-8.557-4.334-2.942-1.798-3.307-2.342-2.626-3.901.436-.996.518-2.209.182-2.696-.399-.578-.898.052-1.442 1.821-.984 3.194-.468 3.937 5.303 7.643 2.405 1.545 8.757 6.233 14.116 10.417 5.358 4.185 12.272 9.508 15.365 11.83 6.761 5.075 6.895 4.602-4.124 14.643-4.139 3.772-6.862 6.666-6.051 6.432 2.017-.585 16.241-14.272 16.644-16.018.336-1.453.118-1.64-19.581-16.705l-9.444-7.223 5.905 2.506c3.248 1.379 10.924 5.196 17.056 8.485 6.134 3.288 11.44 5.865 11.793 5.726.838-.331 4.483-33.397 3.718-33.735-.323-.143-.624-.17-.671-.062zm-19.793-2.501c-5.11-.417-5.855.108-6.261 4.418l-.3 3.184 4.935 2.157c5.132 2.243 9.557 2.352 16.558.412 2.709-.751 3.045-1.103 2.893-3.03-.161-2.073-.496-2.294-6.802-4.482-3.646-1.264-8.607-2.461-11.023-2.659zm196.688 90.1c-1.329 4.693-1.803 9.02-.75 6.85.836-1.724 2.777-10.878 2.346-11.067-.198-.086-.915 1.813-1.596 4.217zm-179.878-82.313c-.035.729-2.757 1.518-7.083 2.054-5.851.726-7.715.571-11.133-.922-3.969-1.735-4.09-1.888-3.667-4.645.429-2.793.535-2.852 5.103-2.92 5.456-.079 16.879 4.3 16.78 6.433zm180.931 89.228c-.716 3.989-1.553 8.295-1.863 9.567-3.008 12.36-4.423 21.871-2.696 18.105.328-.716.982-3.59 1.453-6.387.47-2.796 1.079-6.04 1.352-7.208.274-1.168 1.403-6.67 2.51-12.228 1.106-5.557 2.09-10.393 2.185-10.747.095-.354-.236-.128-.734.5-.499.629-1.493 4.408-2.207 8.398zm60.128 19.613c-3.622-1.11-12.277-3.846-19.232-6.081-6.956-2.236-12.882-3.972-13.171-3.859-.798.314 3.251 1.902 11.849 4.645 4.28 1.366 13.608 4.416 20.729 6.776 7.121 2.361 13.219 4.187 13.55 4.056.907-.357-6.286-3.259-13.725-5.537zM123.65 202.66c-1.17-.022-5.632-.478-9.916-1.012-7.779-.972-10.055-.373-9.25 2.433.363 1.266 1.217 1.641 5.765 2.532 16.626 3.256 15.58 3.304 16.387-.752.553-2.787.222-3.142-2.986-3.201zm136.367 60.027c-.168.385 5.17 9.195 16.268 26.851 4.391 6.985 8.702 14.197 9.577 16.026 1.693 3.534 5.038 8.052 5.755 7.771.236-.094-1.208-2.886-3.209-6.206-4.958-8.224-16.803-27.542-19.302-31.478-1.121-1.765-1.868-3.276-1.662-3.356.207-.083 3.643 3.771 7.636 8.562l7.259 8.711 11.572 5.558c6.364 3.057 12.576 5.664 13.803 5.793 1.308.137-3.161-2.162-10.806-5.556l-13.035-5.79-11.272-13.342c-10.67-12.63-12.244-14.323-12.584-13.544zm-134.699-57.005c-.964 2.208-1.439 2.216-11.601.193-11.341-2.258-11.363-5.281-.023-3.34 3.07.526 7.124 1.028 9.012 1.115 3.373.156 3.417.19 2.612 2.032zm57.261 25.35c-2.683.85-6.768 6.873-4.724 6.965.721.031 1.695-.333 2.165-.812 1.212-1.231 5.793-.144 7.261 1.723.68.865.901 2.338.492 3.273-.538 1.231-.403 1.569.489 1.217 1.801-.708 1.312-4.239-.815-5.884-.951-.736-3.063-1.644-4.692-2.019-3.215-.74-3.401-1.777-.523-2.909 2.462-.969 5.976.773 6.851 3.394.824 2.472 1.978 3.352 2.061 1.573.079-1.686-2.763-5.57-4.724-6.456-.918-.414-2.646-.443-3.841-.065zm166.384 74.815c-1.587-.009-1.514.142.49 1.015 1.294.563 4.063 1.434 6.155 1.936l3.801.911-4.291-1.927c-2.361-1.059-5.13-1.93-6.155-1.935zm-35.675-13.484c-.268 1.557-1.432 6.63-2.586 11.274-1.156 4.644-2.228 9.61-2.382 11.035-.391 3.608-1.03 4.793-2.289 4.244-.594-.26-1.751-.133-2.571.28-2.004 1.012-.461 1.68 2.652 1.148 2.234-.382 2.362-.583 3.16-4.939.456-2.497 1.756-8.349 2.888-13.003 2.019-8.305 2.653-12.415 1.961-12.717-.191-.083-.566 1.121-.833 2.678zm15.344 17.182c-.594 3.182-2.103 8.155-3.354 11.052-1.814 4.205-1.969 5.044-.767 4.16 1.398-1.028 3.429-6.246 4.552-11.692 1.964-9.528 2.243-11.465 1.5-10.457-.467.634-1.336 3.756-1.931 6.937zm137.074 60.502c-2.597 1.483-4.642 2.9-4.546 3.15.248.632 14.08 3.921 14.932 3.55.678-.295-5.038-2.121-10.124-3.233l-2.527-.553 3.147-1.786c4.331-2.457 5.274-3.197 4.501-3.535-.364-.159-2.786.924-5.383 2.407zM207.327 265.609c-1.412 4.504-2.794 8.706-3.069 9.337-.277.632-.216 1.274.135 1.427.351.153 1.933-3.894 3.518-8.995 1.584-5.099 3.199-10.187 3.587-11.304.703-2.022.701-2.025-.448-.342-.636.93-2.31 5.375-3.723 9.877zm-32.616-26.079c-1.298.756-3.58 6.178-2.971 7.061.278.404 1.246.352 2.15-.116 1.437-.743 1.442-.861.048-.934-1.193-.063-1.421-.487-.901-1.678.383-.877.954-1.222 1.268-.766.314.456.807.289 1.096-.369.651-1.493 3.619-1.784 6.288-.617 1.441.629 2.148 1.813 2.46 4.117.376 2.789.539 2.999 1.187 1.522 1.356-3.089-.23-5.25-5.201-7.089-2.477-.915-4.918-1.425-5.424-1.131zm169.51 78.706c-.343.134 17.422 8.131 39.477 17.768 29.571 12.922 40.204 17.288 40.494 16.624.293-.669-9.811-5.216-39.478-17.768-21.929-9.278-40.151-16.759-40.493-16.624zm-165.376-69.442c1.634 1.983 3.149 3.536 3.367 3.451.971-.382-2.562-5.408-4.349-6.189-1.633-.713-1.456-.223.982 2.738zM449.44 367.853c-.49.71-.324 1.419.407 1.738.726.318 1.526-.133 1.948-1.099.837-1.915-1.112-2.445-2.355-.639zm-160.284-70.389c-.277.633 1.37 4.475 3.659 8.539 3.427 6.083 4.802 7.745 7.786 9.406 4.526 2.52 6.533 2.141 6.846-1.293.123-1.344.517-4.116.877-6.163l.656-3.721-9.662-3.959c-7.849-3.218-9.754-3.744-10.162-2.809zm120.998 55.25c-.938 2.146-.353 2.808 1.748 1.981 2.074-.816 2.425-2.499.678-3.262-1.15-.502-1.796-.16-2.426 1.281zM61.692 200.429l-3.304-.05.98 4.368c.539 2.401.742 4.918.45 5.589-1.256 2.894.414 7.524 4.492 12.447 7.074 8.542 17.265 21.699 19.237 24.835 1.03 1.637 2.44 3.222 3.136 3.524.74.32.563-.326-.43-1.561-4.604-5.731-7.053-14.298-8.291-29.018-1.386-16.439-.673-14.712-7.253-17.587-3.287-1.437-7.117-2.519-9.017-2.547zm102.647 55.164c-.814 1.997-.856 2.5-.114 1.355 2.359-3.64 2.789-3.774 3.557-1.115.401 1.386.924 2.103 1.164 1.594.239-.508.178-1.297-.137-1.753-.314-.455-.22-1.632.211-2.616.429-.983.642-2.142.473-2.576-.547-1.403-3.824 1.845-5.154 5.111zm10.921-.52c.77 1.548.633 3.521-.503 7.234l-1.561 5.105-7.321 4.265c-5.823 3.39-7.882 4.14-10.059 3.663-2.704-.592-6.486.376-4.633 1.185.484.211 1.024.053 1.201-.352.178-.405 1.497-.355 2.932.111 2.188.71 3.851.153 10.333-3.465 7.14-3.985 7.893-4.646 9.967-8.751l2.243-4.439.046 4.958c.054 5.889.741 6.26 1.198.647.305-3.746-2.254-11.191-4.11-11.961-.435-.181-.314.63.267 1.8zM55.85 201.784c.444.453.657 1.17.472 1.591-.184.422-.592.394-.907-.061-.314-.456-.734-.453-.934.004-.461 1.054.844 1.662 1.94.903 1.067-.741.822-2.471-.416-2.915-.693-.251-.736-.116-.154.478zm99.263 54.053c-2.499.486-6.619.848-9.153.805-2.534-.042-4.739.221-4.898.586-.16.366.86.673 2.267.685 3.728.029 15.745-1.439 16.592-2.026 1.333-.926-.222-.942-4.808-.05zm53.295 22.603c.117.223 3.719 4.795 8.007 10.16l7.794 9.756 6.961 2.404c7.394 2.553 14.457 4.198 11.227 2.614-.985-.483-5.243-1.925-9.46-3.203l-7.671-2.324-8.067-10.087c-4.436-5.548-8.278-10.005-8.535-9.905-.257.098-.372.362-.256.585zm76.81 36.58c-16.646-4.865-21.408-6.147-21.986-5.92-.877.345 3.395 1.995 9.844 3.802 3.201.897 10.253 2.919 15.669 4.493l9.848 2.861 2.82 4.46c1.551 2.454 3.807 6.211 5.016 8.35 1.231 2.182 2.55 3.641 3.005 3.326.447-.309.23-1.301-.478-2.203-.711-.903-3.139-4.744-5.398-8.535-3.468-5.82-4.507-6.977-6.672-7.432-1.41-.298-6.661-1.739-11.668-3.202zm33.898 19.614c-3.788-1.136-4.237-1.12-2.714.1 1.741 1.397 16.542 6.598 17.595 6.183.77-.302-9.75-4.745-14.881-6.283zm-71.785-30.102c-2.247-.361-1.455.076 3.01 1.656 3.335 1.181 7.436 2.368 9.115 2.638 2.247.361 1.455-.075-3.01-1.655-3.335-1.181-7.436-2.368-9.115-2.639zm-70.241-28.681c-.025.736.242.631.68-.268.396-.814.413-1.359.04-1.212-.375.148-.699.814-.72 1.48zm-.805 5.207c-.192 2.472-.555 3.077-2.365 3.929-19.589 9.229-17.933 8.691-19.767 6.424-1.593-1.968-1.569-2.216.447-4.752 3.149-3.956 3.444-7.145.765-8.269l-2.154-.905 1.643 2.115c1.728 2.227 1.034 5.526-1.524 7.224-1.067.709-1.169.601-.629-.664.356-.832.369-1.402.028-1.269-.34.134-.794 1.285-1.007 2.558-.353 2.093 1.828 6.025 3.825 6.898.428.187 5.354-1.867 10.948-4.565l10.166-4.905.546-3.614c.299-1.988.266-3.505-.074-3.37-.342.133-.723 1.558-.848 3.165zm217.477 103.886c-1.337 1.803-5.007 1.951-8.669.35-4.879-2.132-8.12-7.73-6.35-10.966.511-.935.636-1.829.276-1.986-.359-.156-1.103.745-1.652 2.004-1.907 4.363 4.108 12.135 10.536 13.614 3.45.793 7.989-2.492 9.879-7.147l1.222-3.014-2.075 2.838c-1.142 1.56-2.567 3.498-3.167 4.307zM129.927 270.287c-1.124 1.934-1.015 2.123 1.997 3.439 3.667 1.603 4.933.366 2.958-2.889-1.684-2.774-3.542-2.981-4.955-.55zm9.02 4.809c.144 1.84-.228 2.241-2.821 3.043-2.188.676-2.857 1.259-2.498 2.176.355.91.129 1.433-.828 1.916-1.054.532-.705.931 1.749 2.004 2.637 1.152 3.836 1.028 8.615-.895 3.053-1.228 5.428-2.551 5.276-2.939-.216-.556-5.997-5.041-9.088-7.052-.314-.204-.496.583-.405 1.747zm94.037 45.524c-3.042.174-7.474 1.195-9.845 2.269l-4.314 1.956.205 3.113c.113 1.712.531 2.752.931 2.312.4-.441.653-1.743.562-2.897-.142-1.823.333-2.303 3.652-3.688 5.487-2.29 12.095-2.488 16.648-.499 4.405 1.925 14.724 10.295 18.729 15.193 1.526 1.866 5.578 7.395 9.006 12.288 3.428 4.891 6.347 8.945 6.489 9.006.142.062 2.828 3.679 5.971 8.036 6.868 9.525 13.19 16.135 21.034 21.988 3.911 2.918 1.656.336-5.663-6.485-7.721-7.195-20.897-23.884-30.788-38.995-5.296-8.093-6.464-9.346-13.66-14.663-4.328-3.198-8.867-6.414-10.087-7.147-1.22-.732-2.47-1.504-2.778-1.716-.306-.212-3.048-.244-6.092-.071zm-106.755-44c-.414 1.816 2.729 4.035 3.433 2.424.657-1.504.176-2.485-1.6-3.261-.999-.437-1.606-.159-1.833.837zm-27.544-12.928c-.363.252-.568 1.106-.457 1.899.154 1.089.522 1.316 1.504.929.717-.282 1.233-1.001 1.15-1.597-.181-1.275-1.26-1.88-2.197-1.231zm44.762 23.353c.333.854 2.31.023 2.84-1.191.469-1.073.27-1.113-1.216-.244-.978.571-1.709 1.217-1.624 1.435zm-117.47-51.923c-1.817.716-1.895.891-1.257 2.802.374 1.121.562 2.31.415 2.644-.145.331-.22 2.07-.167 3.861.093 3.07 2.141 6.872 8.18 15.183 1.281 1.764 4.367 6.35 6.855 10.19 4.547 7.019 9.394 12.236 8.512 9.162-.233-.812-1.683-3.781-3.222-6.596-3.155-5.771-3.946-10.478-3.481-20.714.538-11.816.613-11.662-7.213-14.7-4.985-1.935-7.178-2.4-8.622-1.832zm131.564 60.394c-1.746.392-1.766.618-.312 3.57 2.153 4.369 8.549 8.419 9.56 6.053.366-.856-5.387-8.97-6.96-9.815-.233-.125-1.262-.039-2.288.192zm224.56 98.851c-.494.343-.725 1.071-.512 1.616.553 1.418 4.196 1.814 4.763.518.565-1.293-2.932-3.05-4.251-2.134zM20.875 236.809c-1.054 1.071-.807 2.08.668 2.724.574.251 1.353-.251 1.732-1.116.781-1.787-1.03-3-2.4-1.608zm125.158 56.437c-1.022 1.487.762 3.571 2.479 2.895 1.719-.676 1.618-3.422-.138-3.817-.814-.183-1.868.232-2.341.922zm2.977 1.006c-.398.444-.969.668-1.267.5-.895-.508-.242-1.506.916-1.402.593.053.751.458.351.902zm237.566 111.35c-.851 1.173-1.872 1.991-2.268 1.817-1.546-.675-1.263 1.259.573 3.919 1.383 2.006 2.676 2.955 4.594 3.372 1.467.319 2.748.397 2.845.174.441-1.01-2.395-10.627-3.245-10.998-.523-.23-1.649.543-2.499 1.716zm-70.221-31.608c-4.417.177-6.889 1.941-8.77 6.261-2.705 6.205.857 13.595 7.263 15.068 3.32.764 10.054-1.447 11.194-3.676 3.292-6.432 3.288-10.431-.011-13.995-2.717-2.935-5.115-3.841-9.676-3.658zm106.535 48.542c-4.585 1.327-9.577 9.83-9.344 15.915.269 7.031 4.359 12.472 10.421 13.866 4.585 1.055 10.002-2.45 12.453-8.056 2.531-5.793 1.17-15.673-2.519-18.283-2.783-1.968-9.189-3.97-11.011-3.442zm-58.409-25.732c-3.038-.342-6.588-.832-7.887-1.088-1.3-.257-2.516-.116-2.704.315-.189.431.091 3.271.623 6.313l.964 5.53 4.637 1.472c3.832 1.218 4.981 1.968 6.629 4.325 2.632 3.765 12.765 8.493 14.476 6.755.721-.732.605-1.937-.353-3.665-.785-1.417-2.459-4.817-3.721-7.557s-2.637-5.131-3.056-5.314c-.419-.184-1.203-1.579-1.743-3.103-1.178-3.32-.956-3.207-7.865-3.983zm-22.878-9.571c-7.392-.06-12.815 5.8-11.829 12.784.727 5.149 3.797 8.218 8.931 8.933 4.252.591 7.714-1.154 10.552-5.319 1.766-2.589 2.522-7.838 1.44-9.996-.554-1.106-4.668-5.466-5.895-6.247-.113-.072-1.552-.142-3.199-.155zm-19.477-3.174c1.596 2.986.806 5.446-1.817 5.658-4.746.383-7.629-3.824-4.833-7.052 2.434-2.814 4.649-2.349 6.65 1.394zm23.333 12.777c.87 2.605.109 4.225-2.375 5.062-2.71.914-4.444.006-4.966-2.601-.477-2.382.68-4.108 3.218-4.805 2.263-.621 3.338-.009 4.123 2.344zm84.894 38.728c.866 2.222-.4 5.256-2.441 5.848-1.21.351-1.926.01-3.284-1.563-2.107-2.442-1.448-5.886 1.244-6.49 2.435-.547 3.638.046 4.481 2.205zm-111.027-34.131c1.423 1.459 13.057 7.915 11.91 6.607-.742-.844-8.935-5.903-11.652-7.195l-1.546-.734 1.288 1.322zM55.678 288.152c-.67 1.531-.063 2.411 1.293 1.877.904-.355.975-2.758.094-3.144-.385-.168-1.01.403-1.387 1.267zm294.542 130.16c27.733 13.993 46.181 23.417 62.57 31.964 4.413 2.301 5.682 2.739 4.624 1.596-.801-.865-11.148-6.504-22.993-12.529-11.844-6.026-24.778-12.667-28.741-14.759-3.962-2.093-13.02-6.356-20.128-9.476l-12.922-5.671 17.59 8.875zM95.836 309.46c-1.345.231-1.42.403-.676 1.548 1.08 1.662 2.476 2.278 3.521 1.552 2.015-1.397.003-3.59-2.845-3.1zm2.013 1.801c-.19.432-.717.623-1.174.423-.455-.199-.457-.621-.001-.937.455-.316.982-.506 1.173-.423.191.083.191.504.002.937z" fill="#FFB340"/></g><defs><clipPath id="clip0_32_114"><path fill="#fff" transform="scale(-1 1) rotate(-47.962 105.685 836.977)" d="M0 0h478v359H0z"/></clipPath></defs></svg>