<svg width="111" height="82" fill="none" xmlns="http://www.w3.org/2000/svg"><path fill-rule="evenodd" clip-rule="evenodd" d="M82.179.347c-1.473.733-1.74 2.528-.673 4.54 1.059 1.996 3.41 3.316 6.737 3.782 2.578.361 4.554-.476 4.534-1.923-.012-.895-.243-1.45-1.11-2.67C89.787 1.426 87.177 0 84.214 0c-1.021 0-1.504.082-2.035.347zm-2.266 2.495c-.396 1.988.37 4.213 2.417 7.027.96 1.32 1.767 2.065 2.691 2.487 1.152.526 2.134.338 3.3-.63.666-.552.876-.49 1.197.355.277.73.29.74.719.516.908-.477 1.762-1.732 2.154-3.168.1-.361.156-.682.125-.712-.03-.03-.491.059-1.025.199-2.054.537-4.994.161-7.318-.937-1.6-.755-3.241-2.414-3.603-3.64-.146-.494-.267-1.054-.268-1.243-.002-.19-.066-.445-.143-.567-.098-.156-.171-.063-.246.313zm-.757 2.317c-.29 1.635-.267 4.528.05 6.006.27 1.26 1.22 3.495 1.731 4.07.183.204.056.16-.366-.125-.678-.46-1.327-.537-2.815-.332-.914.126-.994.314-.19.445 1.724.281 4.065 2.08 4.065 3.121 0 1.666-1.75 2.628-5.474 3.008-2.188.222-2.924.406-4.477 1.116-.683.312-2.198.824-3.368 1.137-2.429.65-3.612 1.12-4.046 1.608-.294.331-.293.338.03.245.353-.1 3.984-.817 5.64-1.112.547-.098 2.488-.29 4.313-.427 3.842-.288 5.776-.588 8.18-1.266 1.868-.527 4.79-1.834 5.754-2.573.626-.48 1.314-1.53.886-1.352-1.03.429-2.111.641-2.825.556-1.414-.168-3.374-1.405-4.472-2.821l-.547-.707.695.619c1.04.927 1.857 1.396 3.102 1.783 2.093.65 3.627.344 4.755-.946.52-.595 1.241-1.998 1.1-2.14-.039-.04-.488.12-.997.355-3.415 1.571-6.09.305-8.09-3.83-.818-1.69-1.84-4.943-2.061-6.556-.066-.48-.176-.907-.244-.95-.069-.043-.217.438-.329 1.068zm-5.658 4.01c-2.813.61-5.21 1.614-6.252 2.619l-.628.605 1.659.304c.912.168 2.486.49 3.497.718 2.642.594 4.467.77 6.072.587.745-.086 1.427-.228 1.515-.316.241-.243-.976-4.195-1.403-4.558-.464-.392-2.553-.373-4.46.04zm8.033.584c.46 2.049 2.848 4.912 4.557 5.465 1.101.356 2.166.367 2.966.031.738-.31 1.103-.622 1.726-1.477.666-.916.614-1.187-.13-.679-.861.587-1.174.539-1.379-.213a8.263 8.263 0 01-.214-1.043c-.04-.384-.086-.354-.6.388-.604.877-1.383 1.445-1.98 1.446-.956.002-2.53-1.223-4.06-3.156-.82-1.038-.978-1.173-.886-.762zm-19.807 3.603c-.684.374-1.27.706-1.302.737-.031.03.827.052 1.908.046 1.081-.005 2.264.07 2.63.165.364.095 1.41.373 2.322.617 2.116.566 6.685.781 7.797.367.818-.304.816-.305-2.406-.869-1.414-.247-3.131-.627-3.815-.843-1.867-.588-3.543-.905-4.78-.902-.982.002-1.253.08-2.354.682zm-1.335 1.198c-1.553.444-2.644 1.468-2.646 2.482 0 .408.083.465.954.662 1.411.318 6.308.26 8.75-.104 1.646-.245 5.605-1.246 5.832-1.475.035-.035-.89-.11-2.055-.167-2.182-.107-3.31-.318-5.601-1.051-1.604-.513-4.08-.677-5.234-.347zm15.85 1.47c-.638.068-2.197.472-3.465.899-4.435 1.492-6.869 1.786-11.707 1.417-1.558-.119-2.874-.175-2.924-.125-.05.05.12.288.377.53 1.024.96 4.392 1.53 8.165 1.38 2.344-.092 2.664-.164 5.242-1.171 1.8-.704 2.783-.871 3.687-.626 1.073.29 1.403.654 1.498 1.652l.083.868.6-.1c2.21-.37 3.339-1.086 3.339-2.117 0-.855-.606-1.64-1.66-2.151-1.094-.532-1.7-.617-3.234-.455zm15.264.19c-.847 2.467-1.302 3.398-2.597 5.316-.534.79-1.075 1.733-1.2 2.092l-.23.653 2.684.183c2.274.155 2.91.262 4.17.7a72.01 72.01 0 002.86.916l1.374.4-.11-.357c-.06-.197-.84-1.82-1.735-3.61-1.794-3.588-2.882-5.185-4.072-5.977-.868-.578-1.038-.625-1.144-.316zm-18.27 2.862c-.885.216-2.48.965-4.458 2.094-1.34.764-4.18 1.713-6.221 2.078-.776.139-2.978.445-4.894.68-5.778.71-7.993 1.126-10.783 2.025-4.884 1.573-11.807 6.684-20.38 15.043-1.566 1.527-3.567 4.109-2.332 3.008 7.445-6.633 13.13-11.215 16.82-13.553 4.566-2.894 9.457-4.28 20.702-5.862 3.448-.486 5.053-.91 7.883-2.088 1.972-.82 2.977-1.066 5.131-1.255.983-.086 1.167-.158 1.544-.608.531-.635.495-1.288-.088-1.583-.516-.261-1.805-.252-2.923.02zm11.802 3.446c-4.106 1.672-6.277 2.064-12.86 2.323-5.175.204-7.495.63-9.325 1.713-.745.44-1.5 1.448-1.094 1.457.398.009 2.768 2.38 5.493 5.494 1.598 1.827 2.964 3.235 3.355 3.457 1.644.936 3.89.236 6.246-1.947 1.245-1.153 2.58-2.775 2.417-2.938-.045-.046-.761.005-1.592.112-2.202.284-2.938.064-9.156-2.736-2.96-1.332-4.211-1.684-5.518-1.55-1.161.12-1.12-.115.07-.402 1.803-.434 3.228-.037 7.777 2.171 1.688.82 3.555 1.615 4.148 1.767 2.938.754 5.743-.44 8.444-3.594.878-1.026 4.33-6.01 4.33-6.254 0-.168-.267-.077-2.734.927zm6.649 3.53c.55.572 1.654 1.767 2.45 2.654.797.886 1.774 1.88 2.171 2.207l.723.595.361-1.207c.31-1.036.49-1.33 1.267-2.074l.905-.867-.712-.183c-.391-.1-1.831-.514-3.2-.918-2.364-.7-4.455-1.242-4.806-1.247-.088-.002.29.466.84 1.04zm7.325 2.712c-.868.872-1.21 3.078-.725 4.665l.204.667.364-.965c.2-.531.364-1.035.364-1.12 0-.084.451-.462 1.003-.838 1.128-.77 1.148-.89.346-2.08-.55-.814-.983-.906-1.556-.33zm-37.707.303c-.11.46-.134.48-.195.152-.038-.207-.128-.375-.2-.375-.295 0-1.22 2.115-2.153 4.93-.874 2.633-1.013 3.237-1.17 5.065-.23 2.672-.56 3.424-2.275 5.195-1.233 1.274-1.258 1.316-.788 1.316.656 0 2.337-.496 4.23-1.248 3.893-1.547 5.13-2.754 5.13-5.009 0-1.25-.227-2.11-1.207-4.58-.986-2.485-1.448-3.934-1.435-4.502.006-.252.1-.075.241.448.128.476.828 2.06 1.555 3.52 1.437 2.886 1.841 4.127 1.841 5.664 0 1.913-.668 3.026-2.322 3.87-2.34 1.193-5.486 2.013-11.198 2.92-2.007.32-4.023.682-4.48.806l-.829.227 1.684.126c1.976.147 3.926.035 7.69-.442 3.47-.44 5.446-.444 6.182-.012 1.063.624 1.214 1.64.45 3.033-.273.496-.473.925-.447.952.106.106 1.724-.745 2.225-1.17 1.413-1.2 2.47-3.332 3.054-6.164.294-1.43.334-2.063.26-4.108-.156-4.267-1.246-7.265-3.469-9.548-.663-.68-1.44-1.318-1.727-1.415-.5-.171-.526-.157-.647.349zm39.04 2.703c-.473.258-.96 1.493-.96 2.432 0 .455.014.461.954.428.524-.019 1.159.024 1.41.094l.456.128-.004-.961c-.004-1.262-.488-2.382-1.025-2.373-.209.004-.584.117-.831.252zm-11.57 1.436c-.337.231-.987 1.06-1.576 2.01-1.656 2.671-1.813 2.788-6.957 5.204-.902.423-1.602.808-1.556.855.094.095 5.971-1.389 9.252-2.335 4.222-1.217 6.802-2.561 6.802-3.545 0-.993-2.35-2.372-4.265-2.504-.985-.068-1.199-.029-1.7.315zm-2.946 1.31c-1.392.636-3.753 2.243-6.849 4.66-5.558 4.34-7.066 5.384-9.539 6.599l-1.327.652.775.053c.964.067 2.403-.3 3.331-.848.388-.23 1.504-1.125 2.48-1.99 2.582-2.288 3.27-2.776 5.939-4.21 2.673-1.437 3.026-1.661 4.254-2.696.756-.636 2.177-2.487 2.025-2.636-.032-.03-.522.156-1.089.415zm-18.565.252c.654 1.715.85 2.763.843 4.526-.004 1.248.05 1.83.166 1.762.133-.078 2.347-1.904 3.298-2.72.077-.065-.23-.242-.681-.393-1.022-.341-1.982-1.154-2.88-2.44-.684-.982-.934-1.228-.746-.735zm16.03-.062c-3.544.75-7.543 2.08-10.023 3.335-2.048 1.036-4.55 3.258-5.478 4.866-.465.804-1.129 2.714-1.056 3.038.035.154.681-.096 2.124-.822 3.383-1.704 6.102-3.472 9.538-6.204a99.853 99.853 0 013.567-2.658c1.14-.808 2.145-1.533 2.231-1.61.187-.164.111-.16-.904.055zm16.974.413c-.29.141-.637.381-.772.534-.323.364-1.902 2.934-2.308 3.756-.636 1.29.088 2.064 1.388 1.481 1.802-.808 3.529-2.765 3.728-4.224.089-.648.047-.821-.288-1.19-.508-.558-1.092-.678-1.748-.357zm-8.016 2.991c-3.301 1.494-5.003 2.046-8.71 2.824-1.551.326-3.36.743-4.019.928-1.109.31-2.7.932-2.7 1.056 0 .029.588.395 1.305.814 1.72 1.005 2.584 2.104 3.02 3.846.108.428.255.816.329.861.207.13 1.686-.84 4.224-2.766 1.276-.968 3.231-2.38 4.345-3.135 2.325-1.579 3.502-2.593 4.21-3.627.51-.744 1.06-2.074.85-2.052-.064.007-1.35.57-2.854 1.251zm6.256 3.213c-.467.15-1.217.62-1.824 1.142-1.752 1.509-4.156 3.294-5.302 3.938-1.4.787-3.418 1.448-7.26 2.379-4.631 1.122-6.309 1.877-6.795 3.056-.119.289-.188.553-.153.586.035.033.8-.273 1.7-.68 2.647-1.199 4.202-1.643 10.11-2.885 2.034-.428 5.25-2.477 8.13-5.18 1.225-1.149 2.376-2.46 2.25-2.562-.034-.027-.42.066-.856.206zM75.354 43.89c-.96.522-4.035 3.003-3.883 3.133.068.059.385.205.704.325 1.354.508 2.143 1.179 3.071 2.61 1.051 1.621.699 1.624 3.234-.024 1.692-1.1 2.322-1.73 2.322-2.324 0-.855-1.997-3.25-3.177-3.808-.814-.386-1.445-.361-2.271.088zm-54.022.283c-.256.81 1.004 2.01 2.112 2.01.844 0 1.071-.352.673-1.038-.44-.758-1.294-1.297-2.054-1.297-.477 0-.653.079-.73.325zm.13 2.218c-.383.423-.772 1.121-.677 1.217.034.034.301-.084.594-.262.409-.25.531-.44.531-.828 0-.601-.014-.606-.448-.127zm34.456 1.225c-1.925.344-2.769.4-6.005.403l-3.765.002.684 1.433c.897 1.879.97 2.72.388 4.464-.241.721-.417 1.329-.39 1.35.163.135 3.406-.854 5.36-1.634 1.275-.51 3.462-1.238 4.86-1.618 3.021-.822 3.487-1.006 4.242-1.672.694-.613.867-1.257.545-2.031-.506-1.218-2.012-1.395-5.919-.697zm14.484.59c-.383.186-1.338.943-2.124 1.681l-1.427 1.342.354.379c.504.54 2.18 1.329 3.726 1.756 2.353.649 5.558.39 5.558-.45 0-.577-1.134-2.368-2.157-3.406-1.643-1.667-2.559-1.971-3.93-1.302zm-27.507.066c-1.015.276-3.522 1.567-4.64 2.389l-.826.607 1.157.127c1.566.172 2.661.51 3.608 1.115.993.635 1.201 1.128.986 2.342-.186 1.05-.069 1.225.71 1.063 1.297-.269 2.523-1.318 2.907-2.488.318-.97.132-2.88-.385-3.94-.693-1.425-1.597-1.737-3.517-1.215zm22.333 3.698c-.308.152-.781.582-1.05.955-.533.736-1.013 1.764-.885 1.893.045.044.4 0 .79-.1 2.132-.541 3.264-.39 7.288.975l2.929.993h6.194l-.356-.454c-.57-.728-2.154-1.836-2.942-2.058-.502-.14-1.33-.17-2.671-.094-2.603.148-3.349-.02-5.856-1.313-1.153-.595-2.273-1.08-2.489-1.079-.215.002-.644.13-.952.282zm-29.461.672l-1.654.82.76.448c.992.583 3.513 1.68 4.631 2.013 2.099.627 3.309.166 3.309-1.261 0-1.595-1.496-2.634-3.979-2.765l-1.413-.075-1.654.82zm68.675 1.542a56.033 56.033 0 00-3.567.733c-1.944.481-4.893.954-8.378 1.344-6.046.678-8.195.786-17.294.877-6.617.066-9.165.143-9.164.278.001.103.23.588.51 1.077 1.038 1.821 1.674 1.893 16.99 1.918 11.332.018 17.728-.152 20.9-.556 1.36-.174 2.879-.767 3.549-1.386.593-.547 1.008-1.594 1.012-2.552.005-1.278-.481-1.699-2.277-1.966-.251-.038-1.278.068-2.281.233zm-73.257.003c-1.597.272-4.265 1.666-5.333 2.787l-.454.477 6.095.295c6.27.304 11.355.378 11.887.173.36-.139-.753-.524-3.305-1.144-1.057-.258-2.412-.767-3.737-1.404-1.364-.656-2.448-1.06-3.152-1.175-.59-.096-1.11-.166-1.157-.156a51.9 51.9 0 01-.844.148zm33.72 1.01c-.745.076-1.15.209-1.398.458l-.35.35.414.158c.993.38 4.248.583 8.439.528.866-.012 1.016-.05.765-.197-.436-.255-1.719-.592-3.669-.963-2.116-.404-2.903-.466-4.201-.334zM6.6 56.858c-1.505.385-2.68 1.263-3.204 2.394-.217.47-.396.978-.397 1.13-.002.321.355.355 6.8.641 2.235.1 5.37.25 6.967.335 1.597.085 8.055.346 14.35.58 6.296.234 13.724.54 16.506.68 9.06.457 12.516.496 14.028.16 1.555-.347 2.336-.718 3.243-1.542 1.282-1.164 1.502-2.293.638-3.281-1.19-1.363-2.978-1.472-8.702-.532-6.259 1.029-8.317 1.17-17.003 1.168-5.618-.001-8.842-.08-11.862-.292-6.12-.429-11.706-.91-13.838-1.193-2.387-.316-6.705-.46-7.526-.249z" fill="#fff"/><path d="M11.945 75.703c0 .401-.052.763-.156 1.086a3.157 3.157 0 01-.398.844 2.686 2.686 0 01-.586.625 3.467 3.467 0 01-1.43.664A3.345 3.345 0 018.68 79H.844v-2.031H8.68c.39 0 .692-.115.906-.344.219-.23.328-.537.328-.922 0-.187-.029-.36-.086-.516a1.158 1.158 0 00-.25-.406 1.042 1.042 0 00-.39-.265 1.317 1.317 0 00-.508-.094H4.008a3.69 3.69 0 01-1.063-.172 3.3 3.3 0 01-1.062-.57 3.158 3.158 0 01-.813-1.024c-.213-.422-.32-.937-.32-1.547 0-.609.107-1.122.32-1.539a3.1 3.1 0 011.875-1.594c.38-.12.735-.18 1.063-.18h6.914v2.032H4.008c-.386 0-.688.117-.906.352-.214.234-.32.544-.32.93 0 .39.106.7.32.93.218.223.52.335.906.335h4.687c.22.005.45.037.696.094.244.052.487.135.726.25.245.114.477.26.695.437a3.02 3.02 0 01.984 1.469c.1.318.15.677.15 1.078zM22.797 79h-2.031v-5.602c0-.265-.068-.466-.203-.601-.136-.14-.339-.211-.61-.211H16.29v-2.031h3.664c.193 0 .396.023.61.07.213.042.424.11.632.203.214.094.417.216.61.367.192.146.362.326.508.54.145.208.263.45.351.726.089.276.133.588.133.937V79zm-7.328 0h-2.031V66.984h2.03V79zm19.11 0h-2.93l-4.094-3.953a.943.943 0 01-.32-.781.982.982 0 01.383-.734l3.71-2.993h3.25l-4.781 3.852L34.578 79zm-7.86 0h-2.032V66.984h2.032V79zm17.437-2.797c0 .281-.05.586-.148.914-.1.323-.26.625-.485.906a2.648 2.648 0 01-.867.696c-.354.187-.786.281-1.297.281h-3.664c-.28 0-.586-.05-.914-.148a2.809 2.809 0 01-.906-.477 2.762 2.762 0 01-.695-.867c-.188-.36-.282-.794-.282-1.305 0-.281.05-.586.149-.914a2.72 2.72 0 01.476-.906c.224-.281.513-.516.868-.703.359-.188.794-.282 1.304-.282h3.664v1.938h-3.664c-.276 0-.49.086-.64.258a.895.895 0 00-.227.625c0 .265.086.474.258.625a.953.953 0 00.625.219h3.648c.276 0 .49-.084.641-.25a.896.896 0 00.227-.626v-2.835c0-.266-.084-.477-.25-.633a.85.85 0 00-.618-.235H36.9v-1.93h4.46c.282 0 .584.05.907.15.328.098.63.26.906.484.281.218.516.507.703.867.188.354.281.786.281 1.297v2.851zm9.125-3.617h-4.57c-.276 0-.484.07-.625.21-.14.136-.211.337-.211.602V79h-2.031v-5.602c0-.349.044-.661.133-.937a2.69 2.69 0 01.351-.727c.151-.213.323-.393.516-.539.192-.15.393-.273.601-.367.214-.094.427-.161.64-.203a2.92 2.92 0 01.61-.07h4.586v2.03zm10.61 3.562c0 .35-.045.665-.133.946-.089.276-.206.52-.352.734a2.503 2.503 0 01-.508.54 3.23 3.23 0 01-1.242.57 3.182 3.182 0 01-.61.062h-3.663v-2.031h3.664c.27 0 .474-.07.61-.211.135-.14.202-.344.202-.61v-2.734c0-.281-.07-.49-.21-.625-.136-.135-.337-.203-.602-.203h-3.649c-.276 0-.484.07-.625.21-.14.136-.21.337-.21.602v8.243H54.53v-8.243c0-.349.044-.661.133-.937a2.69 2.69 0 01.352-.727 2.43 2.43 0 01.515-.539 2.92 2.92 0 01.602-.367 3.04 3.04 0 01.64-.203 2.92 2.92 0 01.61-.07h3.664c.349 0 .661.044.937.132a2.7 2.7 0 01.727.352c.214.146.393.315.539.508.151.193.273.396.367.61.094.208.162.419.203.632.047.214.07.417.07.61v2.75zm10.82-2.796c0 .28-.05.585-.148.914-.1.322-.26.625-.485.906a2.648 2.648 0 01-.867.695c-.354.188-.787.281-1.297.281H68.25v-1.93h3.664c.276 0 .49-.083.64-.25a.925.925 0 00.227-.632c0-.266-.086-.474-.258-.625a.875.875 0 00-.609-.227H68.25c-.276 0-.49.086-.64.258a.896.896 0 00-.227.625v2.836c0 .271.083.482.25.633a.924.924 0 00.633.227h3.648V79H68.25c-.281 0-.586-.05-.914-.148a2.809 2.809 0 01-.906-.477 2.76 2.76 0 01-.696-.867c-.187-.36-.28-.794-.28-1.305v-2.851a3.1 3.1 0 01.148-.907c.099-.328.257-.63.476-.906a2.71 2.71 0 01.867-.703c.36-.188.795-.281 1.305-.281h3.664c.281 0 .583.05.906.148.328.1.63.26.907.484.28.22.515.508.703.868.187.354.28.786.28 1.297zm9.047-.766H80.21V79h-2.055v-6.414h-2.64v-2.031h2.64v-2.758h2.055v2.758h3.547v2.03zm12.328 3.117c0 .401-.052.763-.156 1.086a3.157 3.157 0 01-.399.844 2.684 2.684 0 01-.586.625 3.467 3.467 0 01-1.43.664 3.344 3.344 0 01-.695.078h-7.836v-2.031h7.836c.39 0 .693-.115.907-.344.218-.23.328-.537.328-.922 0-.187-.029-.36-.086-.516a1.16 1.16 0 00-.25-.406 1.042 1.042 0 00-.39-.265 1.317 1.317 0 00-.509-.094h-4.672c-.328 0-.682-.057-1.062-.172-.38-.12-.734-.31-1.063-.57a3.159 3.159 0 01-.812-1.024c-.214-.422-.32-.937-.32-1.547 0-.609.106-1.122.32-1.539a3.1 3.1 0 011.875-1.594c.38-.12.734-.18 1.062-.18h6.915v2.032h-6.915c-.385 0-.687.117-.906.352-.213.234-.32.544-.32.93 0 .39.107.7.32.93.219.223.521.335.906.335h4.688c.219.005.45.037.695.094.245.052.487.135.727.25.245.114.476.26.695.437.219.172.412.38.578.625.172.245.307.526.406.844.1.318.149.677.149 1.078zM107.469 79h-2.93l-4.094-3.953a.943.943 0 01-.32-.781.983.983 0 01.383-.734l3.711-2.993h3.25l-4.781 3.852L107.469 79zm-7.86 0h-2.03V66.984h2.03V79zm11.063-10.18h-2.031v-1.836h2.031v1.836zm0 10.18h-2.031v-8.445h2.031V79z" fill="#fff"/></svg>